<?xml version="1.0" encoding="UTF-8"?>
<svg width="548px" height="166px" viewBox="0 0 548 166" version="1.1" xmlns="http://www.w3.org/2000/svg" xmlns:xlink="http://www.w3.org/1999/xlink">
    <!-- Generator: Sketch 51.1 (57501) - http://www.bohemiancoding.com/sketch -->
    <title>Logo</title>
    <desc>Created with Sketch.</desc>
    <defs></defs>
    <g id="Page-1" stroke="none" stroke-width="1" fill="none" fill-rule="evenodd">
        <g id="Artboard" transform="translate(-117.000000, -241.000000)" fill="#E31C47" fill-rule="nonzero">
            <g id="Logo" transform="translate(116.000000, 241.000000)">
                <polygon id="Shape" points="275.97 67.72 259.48 119.27 245.05 119.27 236.8 91.74 228.55 119.27 214.12 119.27 197.64 67.72 214.13 67.72 221.55 95.35 229.55 67.72 243.99 67.72 251.99 95.35 259.41 67.72"></polygon>
                <path d="M279.77,53.91 C279.77,48.7847975 283.924798,44.63 289.05,44.63 C294.175202,44.63 298.33,48.7847975 298.33,53.91 C298.33,59.0352025 294.175202,63.19 289.05,63.19 C283.947381,63.135885 279.824115,59.0126192 279.77,53.91 Z M281.32,67.72 L296.78,67.72 L296.78,119.27 L281.32,119.27 L281.32,67.72 Z" id="Shape"></path>
                <path d="M355.28,87.62 L355.28,119.27 L339.82,119.27 L339.82,89.89 C339.82,83.49 335.82,80.5 330.82,80.5 C325.15,80.5 321.23,83.8 321.23,91.12 L321.23,119.27 L305.8,119.27 L305.8,67.72 L321.26,67.72 L321.26,72.57 C324.04,68.75 329.2,66.28 336,66.28 C346.41,66.28 355.28,73.7 355.28,87.62 Z" id="Shape"></path>
                <path d="M360.77,93.49 C360.729521,82.4310814 367.360099,72.4385683 377.565612,68.1784252 C387.771125,63.9182821 399.538308,66.2309174 407.372522,74.0364551 C415.206735,81.8419928 417.562505,93.6006165 413.339815,103.821683 C409.117124,114.04275 399.148993,120.709926 388.09,120.71 C380.835569,120.79623 373.851659,117.959369 368.712242,112.838763 C363.572825,107.718158 360.710373,100.744699 360.77,93.49 Z M399.95,93.49 C399.95,86.17 394.79,81.33 388.09,81.33 C381.39,81.33 376.24,86.17 376.24,93.49 C376.24,100.81 381.39,105.66 388.09,105.66 C394.79,105.66 399.95,100.81 399.95,93.49 Z" id="Shape"></path>
                <path d="M469.83,67.72 L469.83,119.27 L454.36,119.27 L454.36,114.42 C451.58,118.24 446.43,120.71 439.62,120.71 C429.21,120.71 420.34,113.29 420.34,99.37 L420.34,67.72 L435.81,67.72 L435.81,97.1 C435.81,103.49 439.81,106.48 444.81,106.48 C450.48,106.48 454.39,103.19 454.39,95.87 L454.39,67.72 L469.83,67.72 Z" id="Shape"></path>
                <path d="M498.75,82.57 L498.75,100.81 C498.75,105.25 502.57,105.66 509.37,105.25 L509.37,119.25 C489.17,121.31 483.29,115.25 483.29,100.79 L483.29,82.57 L475.04,82.57 L475.04,67.72 L483.29,67.72 L483.29,57.93 L498.75,53.29 L498.75,67.72 L509.37,67.72 L509.37,82.57 L498.75,82.57 Z" id="Shape"></path>
                <path d="M537.64,82.57 L537.64,100.81 C537.64,105.25 541.46,105.66 548.26,105.25 L548.26,119.25 C528.06,121.31 522.18,115.25 522.18,100.79 L522.18,82.57 L513.93,82.57 L513.93,67.72 L522.18,67.72 L522.18,57.93 L537.64,53.29 L537.64,67.72 L548.26,67.72 L548.26,82.57 L537.64,82.57 Z" id="Shape"></path>
                <path d="M44.22,107.67 C52.7083817,106.973216 61.1514269,105.804744 69.51,104.17 C68.84,103.31 68.18,102.45 67.51,101.59 C52.42,81.46 45.44,62.68 47.35,47.3 C49.35,31 62.6,19.49 78.15,16.11 C105.99,10.11 134.15,32.63 133.83,61.22 C133.73,70.5 130.2,79.5 123.34,87.98 C115.487351,98.0313897 105.116989,105.828135 93.28,110.58 C106.666358,123.686708 121.175149,135.595561 136.64,146.17 C168.584154,119.469311 175.67775,73.1746913 153.194032,38.1341699 C130.710313,3.09364855 85.6708162,-9.74981939 48.08723,8.16190254 C10.5036437,26.0736245 -7.88689249,69.1468076 5.17,108.68 C18.1953254,109.067378 31.2321149,108.730191 44.22,107.67 Z" id="Shape"></path>
                <path d="M77.91,116.44 C67.6636775,119.604836 57.1703577,121.906208 46.54,123.32 C34.61,124.84 22.88,126.02 13.54,126.51 C35.9988947,162.390983 81.9176115,175.53404 119.96,156.97 C104.821496,144.674469 90.7543044,131.11577 77.91,116.44 Z" id="Shape"></path>
                <path d="M115.52,41.82 C109.448522,33.6759094 100.124176,28.5882425 89.99,27.89 C85.8781986,27.736748 81.7825986,28.484195 77.99,30.08 C69.28,33.45 63.62,39.67 62.68,49.35 C62.68,49.59 62.68,49.83 62.68,50.07 L62.6,51.9 C62.6,52.9 62.6,53.9 62.69,54.98 L62.99,57.54 C63.16,58.73 63.4,59.93 63.69,61.15 C63.9008261,62.1193571 64.1611672,63.0772788 64.47,64.02 C64.97,65.63 65.56,67.28 66.24,68.94 C66.6389427,70.0447726 67.1065202,71.1235407 67.64,72.17 C68.64,74.17 69.64,76.17 70.9,78.27 C71.5395512,79.4470434 72.2474277,80.585656 73.02,81.68 C74.7,84.2533333 76.5733333,86.86 78.64,89.5 L81.69,93.24 C82.55,94.24 82.93,94.89 83.84,95.92 C96.52,92.16 108.43,86.81 114.98,78.08 C124.33,65.6 123.82,52.79 115.52,41.82 Z" id="Shape"></path>
            </g>
        </g>
    </g>
</svg>