<svg width="0" height="0" class="hidden">
  <symbol viewBox="0 0 29 29" xmlns="http://www.w3.org/2000/svg" id="accept">
    <path d="M14.5 0C6.492 0 0 6.492 0 14.5S6.492 29 14.5 29 29 22.508 29 14.5 22.508 0 14.5 0zm0 27.067c-6.94 0-12.567-5.626-12.567-12.567C1.933 7.56 7.56 1.933 14.5 1.933S27.067 7.559 27.067 14.5c0 6.94-5.626 12.567-12.567 12.567zm-2.9-8.61l-4.41-4.924-1.39 1.33 5.8 6.404L23.2 9.123l-1.36-1.39L11.6 18.458z"></path>
  </symbol>
  <symbol viewBox="0 0 29 29" xmlns="http://www.w3.org/2000/svg" id="accept-active">
    <path d="M14.5 0C6.492 0 0 6.492 0 14.5S6.492 29 14.5 29 29 22.508 29 14.5 22.508 0 14.5 0zm-2.9 21.267l-5.8-6.404 1.39-1.33 4.41 4.925L21.84 7.733l1.36 1.39-11.6 12.144z"></path>
  </symbol>
  <symbol viewBox="0 0 27 26" xmlns="http://www.w3.org/2000/svg" id="add">
    <path d="M26.831 12h-12V0h-2v12h-12v2h12v12h2V14h12z"></path>
  </symbol>
  <symbol viewBox="0 0 29 29" xmlns="http://www.w3.org/2000/svg" id="add-circle">
    <path d="M14.5 0C6.492 0 0 6.492 0 14.5S6.492 29 14.5 29 29 22.508 29 14.5 22.508 0 14.5 0zm0 27.067c-6.94 0-12.567-5.626-12.567-12.567C1.933 7.56 7.56 1.933 14.5 1.933S27.067 7.559 27.067 14.5c0 6.94-5.626 12.567-12.567 12.567zM15.467 5.8h-1.934v7.733H5.8v1.934h7.733V23.2h1.934v-7.733H23.2v-1.934h-7.733V5.8z"></path>
  </symbol>
  <symbol viewBox="0 0 24 24" xmlns="http://www.w3.org/2000/svg" id="archive">
    <path d="M18.462 20.308a1.847 1.847 0 1 0-.002-3.694 1.847 1.847 0 0 0 .002 3.694zm-12-14.77L12 11.077l5.538-5.539-1.297-1.297-3.318 3.317V0h-1.846v7.558L7.759 4.241 6.462 5.538zM20.308 0h-5.539v1.846h4.146l3.165 11.077H1.92L5.085 1.846h4.146V0H3.692L0 12.923V24h24V12.923L20.308 0zm1.846 22.154H1.846v-7.385h20.308v7.385z"></path>
  </symbol>
  <symbol viewBox="0 0 19 29" xmlns="http://www.w3.org/2000/svg" id="attach">
    <path d="M16.571 7.25v12.429a7.25 7.25 0 1 1-14.5 0V7.25A5.178 5.178 0 0 1 7.25 2.071a5.178 5.178 0 0 1 5.179 5.179v12.429a3.107 3.107 0 1 1-6.215 0V7.25H4.143v12.429a5.178 5.178 0 0 0 5.178 5.178A5.178 5.178 0 0 0 14.5 19.68V7.25a7.25 7.25 0 1 0-14.5 0v12.429A9.32 9.32 0 0 0 9.321 29a9.32 9.32 0 0 0 9.322-9.321V7.25H16.57z"></path>
  </symbol>
  <symbol viewBox="0 0 30 30" xmlns="http://www.w3.org/2000/svg" id="bell">
    <path d="M17.82 25.9v.1a3.007 3.007 0 0 1-2.83 2.004 2.99 2.99 0 0 1-2.237-1.002L12.75 27a3.156 3.156 0 0 1-.583-.978L12.16 26v-.08h-2.1V26c.48 2.3 2.5 4.005 4.9 4.005a5 5 0 0 0 4.894-3.973L19.86 26v-.1h-2.04zm-8-.9H30c-3-2-6-5-6-7v-5a8.999 8.999 0 0 0-4.948-8.036L19 4.94a4 4 0 1 0-8 0C8.014 6.446 6 9.488 6 13v5c0 2-3 5-6 7h9.82zM15 3a2.003 2.003 0 0 1 1.815 1.177l.005.013a8.8 8.8 0 0 0-3.698.011l.058-.01a2.03 2.03 0 0 1 1.82-1.2V3zM8 18v-5a7 7 0 0 1 14 0v5c0 1.74 1.16 3.5 2.54 5H5.43C6.8 21.5 8 19.74 8 18z"></path>
  </symbol>
  <symbol viewBox="0 0 31 30" xmlns="http://www.w3.org/2000/svg" id="bell-active">
    <path d="M15.5 30a5.166 5.166 0 0 0 5.057-4.095l.006-.034H10.437C10.935 28.245 13.012 30 15.5 30zm9.3-12.388V12.45a9.29 9.29 0 0 0-5.113-8.296l-.054-.025A4.132 4.132 0 0 0 15.5 0a4.131 4.131 0 0 0-4.133 4.13C8.28 5.683 6.2 8.824 6.2 12.45v5.162c0 2.065-3.1 5.162-6.2 7.226h31c-3.1-2.064-6.2-5.161-6.2-7.226z"></path>
  </symbol>
  <symbol viewBox="0 0 22 27" xmlns="http://www.w3.org/2000/svg" id="bookmark">
    <path d="M0 0v27l10.607-9.643L21.214 27V0H0zm19.286 22.64l-8.679-7.89-8.678 7.89V1.93h17.357v20.71z"></path>
  </symbol>
  <symbol viewBox="0 0 22 28" xmlns="http://www.w3.org/2000/svg" id="bookmark-active">
    <path d="M0 0v28l11-10 11 10V0z"></path>
  </symbol>
  <symbol viewBox="0 0 22 30" xmlns="http://www.w3.org/2000/svg" id="bulb">
    <path d="M6 26h10v-2H6v2zm2 4h6v-2H8v2zm3-30C4.925 0 0 4.925 0 11c0 6.047 4.438 8.5 6 11h10c1.563-2.5 6-4.953 6-11 0-6.075-4.925-11-11-11zm3.984 20h-7.97C5.313 17.78 2 15.75 2 11c0-4.963 4.037-9 9-9s9 4.037 9 9c0 4.75-3.312 6.78-5.016 9z"></path>
  </symbol>
  <symbol viewBox="0 0 22 30" xmlns="http://www.w3.org/2000/svg" id="bulb-active">
    <path d="M6 26h10v-2H6v2zm2 4h6v-2H8v2zm3-30C4.925 0 0 4.925 0 11c0 6.047 4.438 8.5 6 11h10c1.563-2.5 6-4.953 6-11 0-6.075-4.925-11-11-11z"></path>
  </symbol>
  <symbol viewBox="0 0 26 26" xmlns="http://www.w3.org/2000/svg" id="chat">
    <path d="M13 0C5.82 0 0 4.99 0 11.143c0 3.733 2.149 7.027 5.436 9.05C5.179 22.155 4.57 24.51 3.714 26c2.4 0 5.517-1.908 7.554-3.825.568.065 1.143.11 1.732.11 7.18 0 13-4.988 13-11.142C26 4.989 20.18 0 13 0zm0 20.429c-.725 0-1.726-.116-2.365-.204-.9.871-1.756 1.741-3.874 2.93.247-.854.566-2.915.668-3.902-1.785-.986-5.572-3.525-5.572-8.11 0-5.12 4.999-9.286 11.143-9.286 6.144 0 11.143 4.166 11.143 9.286 0 5.12-4.991 9.286-11.143 9.286z"></path>
  </symbol>
  <symbol viewBox="0 0 26 20" xmlns="http://www.w3.org/2000/svg" id="check">
    <path d="M1.438 10L0 11.375 8 20 26 1.438 24.594 0 8 17.094z"></path>
  </symbol>
  <symbol viewBox="0 0 17 29" xmlns="http://www.w3.org/2000/svg" id="chevron-left">
    <path d="M15.33 0L0 14.5 15.255 29 17 27.301 3.529 14.5 17 1.738z"></path>
  </symbol>
  <symbol viewBox="0 0 17 29" xmlns="http://www.w3.org/2000/svg" id="chevron-right">
    <path d="M1.67 0L17 14.5 1.746 29 0 27.301 13.471 14.5 0 1.738z"></path>
  </symbol>
  <symbol viewBox="0 0 22 22" xmlns="http://www.w3.org/2000/svg" id="close">
    <path d="M22 1.4L20.6 0 11 9.6 1.4 0 0 1.4 9.6 11 0 20.6 1.4 22l9.6-9.6 9.6 9.6 1.4-1.4-9.6-9.6z"></path>
  </symbol>
  <symbol viewBox="0 0 29 29" xmlns="http://www.w3.org/2000/svg" id="close-alt">
    <path d="M14.5 0C6.492 0 0 6.492 0 14.5S6.492 29 14.5 29 29 22.508 29 14.5 22.508 0 14.5 0zm0 27.067c-6.94 0-12.567-5.626-12.567-12.567C1.933 7.56 7.56 1.933 14.5 1.933S27.067 7.559 27.067 14.5c0 6.94-5.626 12.567-12.567 12.567zm5.413-19.334L14.5 13.147 9.087 7.733 7.733 9.087l5.414 5.413-5.414 5.413 1.354 1.354 5.413-5.414 5.413 5.414 1.354-1.354-5.414-5.413 5.414-5.413-1.354-1.354z"></path>
  </symbol>
  <symbol viewBox="0 0 28 28" xmlns="http://www.w3.org/2000/svg" id="connections">
    <path d="M8.5 0A8.5 8.5 0 1 0 17 8.5 8.51 8.51 0 0 0 8.5 0zm0 15A6.5 6.5 0 1 1 15 8.5 6.51 6.51 0 0 1 8.5 15z"></path>
    <path d="M15.94 27a11.11 11.11 0 0 1-10.77-8.55l.14.05A10.93 10.93 0 1 0 18.5 5.31l-.05-.14A11.06 11.06 0 0 1 15.94 27z"></path>
    <path d="M16.82 3.92a9.16 9.16 0 0 1 .88 2.25A9.93 9.93 0 1 1 6.17 17.7a9.16 9.16 0 0 1-2.25-.88c.465 6.418 5.887 11.34 12.32 11.185 6.432-.155 11.61-5.333 11.765-11.766C28.16 9.807 23.238 4.385 16.82 3.92z"></path>
  </symbol>
  <symbol viewBox="0 0 29 29" xmlns="http://www.w3.org/2000/svg" id="conversation">
    <path d="M5.8 13.788V11.6H3.867a1.935 1.935 0 0 1-1.934-1.933v-5.8c0-1.067.866-1.934 1.934-1.934h9.666c1.068 0 1.934.867 1.934 1.934v5.8H17.4v-5.8A3.878 3.878 0 0 0 13.533 0H3.867A3.878 3.878 0 0 0 0 3.867v5.8a3.878 3.878 0 0 0 3.867 3.866V17.4l5.8-3.867h.338a5.801 5.801 0 0 1 1.151-1.933H9.082L5.8 13.788zM25.133 11.6h-9.666a3.878 3.878 0 0 0-3.867 3.867v5.8a3.878 3.878 0 0 0 3.867 3.866h3.866l5.8 3.867v-3.867A3.878 3.878 0 0 0 29 21.267v-5.8a3.878 3.878 0 0 0-3.867-3.867zm1.934 9.667a1.935 1.935 0 0 1-1.934 1.933H23.2v2.188L19.918 23.2h-4.451a1.935 1.935 0 0 1-1.934-1.933v-5.8c0-1.067.866-1.934 1.934-1.934h9.666c1.068 0 1.934.867 1.934 1.934v5.8z"></path>
  </symbol>
  <symbol viewBox="0 0 32 19" xmlns="http://www.w3.org/2000/svg" id="double-check">
    <path d="M7.775 19L0 11.559l1.626-1.568 6.149 5.885L24.374 0 26 1.557zm8.301 0L13 16.011l1.571-1.526 1.505 1.45L30.429 2 32 3.527z"></path>
  </symbol>
  <symbol viewBox="0 0 24 14" xmlns="http://www.w3.org/2000/svg" id="dropdown">
    <path d="M24 1.375L12 14 0 1.438 1.406 0 12 11.094 22.563 0z"></path>
  </symbol>
  <symbol viewBox="0 0 30 26" xmlns="http://www.w3.org/2000/svg" id="eye-off">
    <path d="M26.6 0l-4.215 4.214C19.976 2.883 17.337 2 15 2 8.641 2 0 8.469 0 13c0 2.455 2.542 5.469 5.878 7.723L2 24.6 3.4 26 28 1.4 26.6 0zM10.837 15.764A4.977 4.977 0 0 1 10 13a5 5 0 0 1 7.764-4.164l-6.927 6.928zm8.357-8.359A6.952 6.952 0 0 0 15 6a7 7 0 0 0-7 7c0 1.576.526 3.025 1.405 4.195L7.299 19.3C4.272 17.313 2 14.676 2 13c0-2.975 7.149-9 13-9 1.94 0 4.021.667 5.938 1.662l-1.744 1.743zM15 18c-.24 0-.47-.038-.701-.07l-1.655 1.655A6.968 6.968 0 0 0 15 20a7 7 0 0 0 7-7c0-.828-.151-1.619-.415-2.357l-1.655 1.656c.032.231.07.461.07.701a5 5 0 0 1-5 5zM25.746 6.481l-1.411 1.412C26.506 9.657 28 11.644 28 13c0 2.975-7.149 9-13 9-1.293 0-2.647-.306-3.976-.797l-1.513 1.514C11.364 23.508 13.266 24 15 24c6.359 0 15-6.469 15-11 0-2.037-1.753-4.462-4.254-6.519z"></path>
  </symbol>
  <symbol viewBox="0 0 33 23" xmlns="http://www.w3.org/2000/svg" id="eye">
    <path d="M16.557 0C9.909 0 .875 6.763.875 11.5S9.909 23 16.557 23s15.682-6.763 15.682-11.5S23.205 0 16.557 0zm0 20.91c-6.117 0-13.591-6.3-13.591-9.41 0-3.11 7.474-9.41 13.59-9.41 6.118 0 13.592 6.3 13.592 9.41 0 3.11-7.474 9.41-13.591 9.41zm0-16.728a7.318 7.318 0 1 0 0 14.636 7.318 7.318 0 0 0 0-14.636zm0 12.545a5.227 5.227 0 1 1 0-10.455 5.227 5.227 0 0 1 0 10.455z"></path>
  </symbol>
  <symbol viewBox="0 0 29 29" xmlns="http://www.w3.org/2000/svg" id="facebook">
    <path d="M14.5 0C6.492 0 0 6.492 0 14.5S6.492 29 14.5 29 29 22.508 29 14.5 22.508 0 14.5 0zm3.435 10.02h-2.18c-.258 0-.545.34-.545.792v1.573h2.726l-.412 2.245H15.21v6.738h-2.572V14.63h-2.334v-2.245h2.334v-1.32c0-1.894 1.314-3.433 3.117-3.433h2.18v2.388z"></path>
  </symbol>
  <symbol viewBox="0 0 23 28" xmlns="http://www.w3.org/2000/svg" id="file">
    <path d="M12.75 0h-12v28h22V10l-10-10zm0 2.828L19.922 10H12.75V2.828zm8 23.172h-18V2h8v10h10v14zm-16-10h14v-2h-14v2zm0 4h14v-2h-14v2zm0 4h14v-2h-14v2z"></path>
  </symbol>
  <symbol viewBox="0 0 29 29" xmlns="http://www.w3.org/2000/svg" id="files-active">
    <path d="M9.667 13.533H17.4L9.667 5.8v7.733zM7.733 5.8H0V29h17.4V15.467H7.733V5.8zM21.267 0v7.733H29L21.267 0zm-1.934 0H11.6v5l7.733 7.733V23.2H29V9.667h-9.667V0z"></path>
  </symbol>
  <symbol viewBox="0 0 29 29" xmlns="http://www.w3.org/2000/svg" id="hashtag">
    <path d="M29 10.038v-2.23h-7.292l.6-7.808h-2.231l-.6 7.808h-8.923l.6-7.808h-2.23l-.601 7.808H0v2.23h8.151l-.686 8.924H0v2.23h7.292L6.692 29h2.231l.6-7.808h8.923l-.6 7.808h2.23l.601-7.808H29v-2.23h-8.151l.686-8.924H29zm-10.382 8.924H9.695l.686-8.924h8.923l-.686 8.924z"></path>
  </symbol>
  <symbol viewBox="0 0 27 26" xmlns="http://www.w3.org/2000/svg" id="help">
    <path d="M13.625 0c-7.18 0-13 5.82-13 13s5.82 13 13 13 13-5.82 13-13-5.82-13-13-13zm0 24.267C7.402 24.267 2.358 19.223 2.358 13S7.402 1.733 13.625 1.733 24.892 6.777 24.892 13s-5.044 11.267-11.267 11.267zm-.867-3.467h1.734v-3.467h-1.734V20.8zm.867-15.6c-2.564 0-4.507 1.59-4.507 4.333h1.734c0-1.769 1.203-2.6 2.773-2.6 1.385 0 2.6.81 2.6 1.734 0 2.843-3.467 2.302-3.467 6.933h1.734c-.127-3.521 3.466-3.16 3.466-6.933 0-1.915-1.94-3.467-4.333-3.467z"></path>
  </symbol>
  <symbol viewBox="0 0 26 26" xmlns="http://www.w3.org/2000/svg" id="help-active">
    <path d="M13 0C5.82 0 0 5.82 0 13s5.82 13 13 13 13-5.82 13-13S20.18 0 13 0zm.867 20.8h-1.734v-3.467h1.734V20.8zm0-5.2h-1.734c0-4.631 3.467-4.09 3.467-6.933 0-.923-1.215-1.734-2.6-1.734-1.57 0-2.773.831-2.773 2.6H8.493C8.493 6.79 10.436 5.2 13 5.2c2.394 0 4.333 1.552 4.333 3.467 0 3.773-3.593 3.413-3.466 6.933z"></path>
  </symbol>
  <symbol viewBox="0 0 29 28" xmlns="http://www.w3.org/2000/svg" id="home">
    <path d="M28.5 14l-5.6-5.6V1.867h-4.667v1.866L14.5 0 .5 14l1.312 1.312L3.3 13.825V28h9.333v-9.333h3.734V28H25.7V13.825l1.488 1.488L28.5 14zM20.1 3.733h.933v2.8L20.1 5.6V3.733zm3.733 22.4h-5.6V16.8h-7.466v9.333h-5.6V11.96L14.5 2.625l9.333 9.334v14.174z"></path>
  </symbol>
  <symbol viewBox="0 0 28 28" xmlns="http://www.w3.org/2000/svg" id="home-active">
    <path d="M28 14l-5.6-5.6V1.867h-4.667v1.866L14 0 0 14l1.312 1.312L2.8 13.825V28h7.467V16.8h7.466V28H25.2V13.825l1.488 1.487z"></path>
  </symbol>
  <symbol viewBox="0 0 29 28" xmlns="http://www.w3.org/2000/svg" id="key">
    <path d="M20.375 0a8 8 0 0 0-7.353 11.152L.375 23.8l4.2 4.2 3.3-3.3 3.3 3.3 4.2-4.2-3.3-3.3 5.147-5.147A8 8 0 1 0 20.375 0zm-7.828 23.8l-1.372 1.372-1.886-1.886 1.372-1.372 1.886 1.886zm-7.972 1.372L3.203 23.8l10.876-10.876c.4.512.86.972 1.372 1.372L4.575 25.172zM20.375 14a6 6 0 0 1 0-12 6 6 0 0 1 0 12zm0-10a4 4 0 1 0 0 8 4 4 0 0 0 0-8zm0 6a2 2 0 1 1 .001-4.001A2 2 0 0 1 20.375 10z"></path>
  </symbol>
  <symbol viewBox="0 0 28 28" xmlns="http://www.w3.org/2000/svg" id="key-active">
    <path d="M20 0a8 8 0 0 0-7.353 11.152L0 23.8 4.2 28l3.3-3.3 3.3 3.3 4.2-4.2-3.3-3.3 5.147-5.147A8 8 0 1 0 20 0zm0 10a2 2 0 1 1 .001-4.001A2 2 0 0 1 20 10z"></path>
  </symbol>
  <symbol viewBox="0 0 29 29" xmlns="http://www.w3.org/2000/svg" id="linkedin">
    <path d="M14.5 0C6.492 0 0 6.492 0 14.5S6.492 29 14.5 29 29 22.508 29 14.5 22.508 0 14.5 0zm-3.55 20.51H8.015v-9.45h2.937v9.45zM9.465 9.9c-.927 0-1.527-.656-1.527-1.469 0-.83.618-1.466 1.565-1.466s1.527.637 1.545 1.466c0 .813-.598 1.47-1.583 1.47zm12.21 10.61h-2.936v-5.237c0-1.219-.426-2.046-1.488-2.046-.81 0-1.292.56-1.505 1.1-.079.191-.099.463-.099.733v5.448H12.71v-6.434c0-1.18-.038-2.166-.077-3.015h2.55l.135 1.313h.059c.387-.616 1.334-1.526 2.918-1.526 1.932 0 3.38 1.295 3.38 4.077v5.587z"></path>
  </symbol>
  <symbol viewBox="0 0 23 30" xmlns="http://www.w3.org/2000/svg" id="location">
    <path d="M11.25 0c-6.075 0-11 4.925-11 11 0 7.539 8.708 17.125 11 19 2.291-1.875 11-11.461 11-19 0-6.075-4.925-11-11-11zm0 27.258c-3.045-3.119-9-10.549-9-16.258 0-4.962 4.038-9 9-9 4.963 0 9 4.038 9 9 0 5.709-5.955 13.139-9 16.258zM11.25 6a5 5 0 1 0 .001 10.001A5 5 0 0 0 11.25 6zm0 8a3 3 0 1 1 0-6 3 3 0 0 1 0 6z"></path>
  </symbol>
  <symbol viewBox="0 0 29 29" xmlns="http://www.w3.org/2000/svg" id="logo">
    <path d="M7.585 19.026a61.169 61.169 0 0 1-6.851.179c-2.29-6.993.936-14.613 7.53-17.781 6.593-3.169 14.495-.897 18.44 5.302 3.944 6.198 2.7 14.387-2.905 19.11a56.38 56.38 0 0 1-7.607-6.295 12.703 12.703 0 0 0 5.274-3.998c1.203-1.5 1.823-3.092 1.84-4.734.056-5.057-4.884-9.04-9.768-7.98-2.729.599-5.053 2.635-5.404 5.518-.335 2.72.89 6.043 3.537 9.604l.35.456a39.7 39.7 0 0 1-4.436.619zm5.687 1.538a59.6 59.6 0 0 0 7.292 6.989c-6.597 3.201-14.56.935-18.455-5.253 1.62-.084 3.654-.288 5.723-.55a33.477 33.477 0 0 0 5.44-1.186zm7.16-13.748c1.551 2.04 1.645 4.421-.098 6.74-1.223 1.623-3.447 2.625-5.817 3.317-.17-.19-.241-.31-.403-.498l-.568-.692c-.382-.492-.73-.976-1.042-1.455a6.297 6.297 0 0 1-.404-.637 14.822 14.822 0 0 1-.61-1.134 5.143 5.143 0 0 1-.263-.595 9.521 9.521 0 0 1-.332-.915 5.354 5.354 0 0 1-.146-.535 7.73 7.73 0 0 1-.13-.67l-.056-.477c-.018-.193-.018-.384-.018-.572l.014-.346.01-.135c.176-1.799 1.234-2.956 2.862-3.582a5.282 5.282 0 0 1 2.231-.409 6.514 6.514 0 0 1 4.77 2.595z"></path>
  </symbol>
  <symbol viewBox="0 0 29 21" xmlns="http://www.w3.org/2000/svg" id="mail">
    <path d="M.125 0v21h28.636V0H.125zm16.791 11.77c-1.388 1.358-1.691 1.594-2.473 1.594-.782 0-1.085-.236-2.439-1.561l-9.97-9.894h24.818l-9.936 9.86zM2.034 4.595l6.844 6.796-6.844 5.6V4.595zm.425 14.496l7.77-6.358.396.392c1.373 1.342 2.177 2.148 3.818 2.148s2.447-.806 3.818-2.148l.396-.392 7.77 6.358H2.46zm24.393-2.1l-6.844-5.6 6.844-6.796v12.396z"></path>
  </symbol>
  <symbol viewBox="0 0 29 21" xmlns="http://www.w3.org/2000/svg" id="mail-active">
    <path d="M14.5 13.364c1.163 0 1.828-.97 2.9-1.95L29 0H0l11.6 11.414c1.072.98 1.737 1.95 2.9 1.95zM0 2.685v15.87l8.894-7.162L0 2.685zm29 15.87V2.684l-8.894 8.708L29 18.554zm-10.633-5.46c-.826.806-1.954 2.178-3.867 2.178s-3.041-1.373-3.867-2.178l-.383-.376L0 21h29l-10.25-8.28-.383.375z"></path>
  </symbol>
  <symbol viewBox="0 0 26 22" xmlns="http://www.w3.org/2000/svg" id="menu">
    <path d="M0 0v2h26V0H0zm0 12h26v-2H0v2zm0 10h26v-2H0v2z"></path>
  </symbol>
  <symbol viewBox="0 0 9 29" xmlns="http://www.w3.org/2000/svg" id="more">
    <path d="M8.032 4.503a3.733 3.733 0 1 0-7.467 0 3.733 3.733 0 0 0 7.467 0zm-5.6 0a1.867 1.867 0 1 1 3.735 0 1.867 1.867 0 0 1-3.735 0zm5.6 10.266a3.733 3.733 0 1 0-7.467 0 3.733 3.733 0 0 0 7.467 0zm-5.6 0a1.867 1.867 0 1 1 3.735.002 1.867 1.867 0 0 1-3.735-.002zm5.6 10.267a3.733 3.733 0 1 0-7.467 0 3.733 3.733 0 0 0 7.467 0zm-5.6 0a1.867 1.867 0 1 1 3.735.001 1.867 1.867 0 0 1-3.735-.001z"></path>
  </symbol>
  <symbol viewBox="0 0 28 8" xmlns="http://www.w3.org/2000/svg" id="more-horizontal">
    <path d="M3.733 0a3.733 3.733 0 1 0 0 7.467 3.733 3.733 0 0 0 0-7.467zm0 5.6a1.867 1.867 0 1 1 .002-3.735A1.867 1.867 0 0 1 3.733 5.6zM14 0a3.733 3.733 0 1 0 0 7.467A3.733 3.733 0 0 0 14 0zm0 5.6a1.867 1.867 0 1 1 .001-3.735A1.867 1.867 0 0 1 14 5.6zM24.267 0a3.733 3.733 0 1 0 0 7.467 3.733 3.733 0 0 0 0-7.467zm0 5.6a1.867 1.867 0 1 1 .001-3.735 1.867 1.867 0 0 1-.001 3.735z"></path>
  </symbol>
  <symbol viewBox="0 0 28 28" xmlns="http://www.w3.org/2000/svg" id="music">
    <path d="M10 4v15.28C8.938 18.487 7.539 18 6 18c-3.313 0-6 2.238-6 5s2.687 5 6 5 6-2.238 6-5V11.712l14-3.111v6.68C24.938 14.487 23.539 14 22 14c-3.313 0-6 2.238-6 5s2.687 5 6 5 6-2.238 6-5V0L10 4zM6 26c-2.168 0-4-1.374-4-3s1.832-3 4-3 4 1.374 4 3-1.832 3-4 3zm16-4c-2.168 0-4-1.374-4-3s1.832-3 4-3 4 1.374 4 3-1.832 3-4 3zM12 9.663V5.604l14-3.111v4.059L12 9.663z"></path>
  </symbol>
  <symbol viewBox="0 0 28 21" xmlns="http://www.w3.org/2000/svg" id="people">
    <path d="M9.12 10.22a5.07 5.07 0 1 1 0-10.14 5.07 5.07 0 0 1 0 10.14zm0-8.13a3.07 3.07 0 1 0 0 6.14 3.07 3.07 0 0 0 0-6.14zm9.13 18.82h-2a7.13 7.13 0 1 0-14.25 0H0a9.13 9.13 0 1 1 18.25 0zm2.95-9.7a3.9 3.9 0 1 1 3.9-3.9 3.91 3.91 0 0 1-3.9 3.9zm0-5.8a1.9 1.9 0 1 0 1.9 1.9 1.91 1.91 0 0 0-1.9-1.9z"></path>
    <path d="M28 19.28h-2a4.81 4.81 0 0 0-9.08-2.19l-1.78-.92A6.81 6.81 0 0 1 28 19.28z"></path>
  </symbol>
  <symbol viewBox="0 0 28 21" xmlns="http://www.w3.org/2000/svg" id="people-active">
    <path d="M9.12 10.22a5.07 5.07 0 1 1 0-10.14 5.07 5.07 0 0 1 0 10.14zM0 20.91a9.13 9.13 0 1 1 18.25 0H0zm21.2-9.7a3.9 3.9 0 1 1 3.9-3.9 3.91 3.91 0 0 1-3.9 3.9z"></path>
    <path d="M15.14 16.17A6.81 6.81 0 0 1 28 19.28H15.09l.05-3.11z"></path>
  </symbol>
  <symbol viewBox="0 0 26 26" xmlns="http://www.w3.org/2000/svg" id="photo">
    <path d="M0 0v26h26V0H0zm24 24H2v-4h22v4zm0-6H2V2h22v16zM6 8a2 2 0 1 0-.001-4.001A2 2 0 0 0 6 8zm10-3l-5 5-2-1-5 7h18L16 5zm-6.365 6.553l1.76.881 4.129-4.129L18.631 14H7.887l1.748-2.447z"></path>
  </symbol>
  <symbol viewBox="0 0 26 29" xmlns="http://www.w3.org/2000/svg" id="poll">
    <path d="M24.375 0h-3.25C20.228 0 19.5.72 19.5 1.612V29H26V1.612C26 .72 25.274 0 24.375 0zm-9.75 9.671h-3.25c-.897 0-1.625.72-1.625 1.612V29h6.5V11.283c0-.892-.726-1.612-1.625-1.612zm-9.75 9.67h-3.25c-.897 0-1.625.721-1.625 1.613V29h6.5v-8.046c0-.892-.726-1.612-1.625-1.612z"></path>
  </symbol>
  <symbol viewBox="0 0 29 29" xmlns="http://www.w3.org/2000/svg" id="record">
    <path d="M14.5 0C6.492 0 0 6.49 0 14.5 0 22.506 6.492 29 14.5 29S29 22.506 29 14.5C29 6.49 22.508 0 14.5 0z"></path>
  </symbol>
  <symbol viewBox="0 0 30 29" xmlns="http://www.w3.org/2000/svg" id="remove">
    <path d="M14.625 0C6.617 0 .125 6.492.125 14.5S6.617 29 14.625 29s14.5-6.492 14.5-14.5S22.633 0 14.625 0zm0 27.067c-6.94 0-12.567-5.626-12.567-12.567 0-6.94 5.626-12.567 12.567-12.567 6.94 0 12.567 5.626 12.567 12.567 0 6.94-5.626 12.567-12.567 12.567zm-8.7-11.6h17.4v-1.934h-17.4v1.934z"></path>
  </symbol>
  <symbol viewBox="0 0 29 29" xmlns="http://www.w3.org/2000/svg" id="remove-active">
    <path d="M14.5 0C6.492 0 0 6.492 0 14.5S6.492 29 14.5 29 29 22.508 29 14.5 22.508 0 14.5 0zm8.7 15.467H5.8v-1.934h17.4v1.934z"></path>
  </symbol>
  <symbol viewBox="0 0 27 26" xmlns="http://www.w3.org/2000/svg" id="search">
    <path d="M26.663 24.6l-8.265-8.264A9.958 9.958 0 0 0 20.663 10c0-5.523-4.478-10-10-10s-10 4.477-10 10 4.478 10 10 10a9.96 9.96 0 0 0 6.336-2.265L25.263 26l1.4-1.4zm-16-6.6a8 8 0 1 1 0-16 8 8 0 0 1 0 16z"></path>
  </symbol>
  <symbol viewBox="0 0 28 28" xmlns="http://www.w3.org/2000/svg" id="send">
    <path d="M28 0L0 12l13 4.643V28l5.552-8.725L28 24V0zm-4.771 4.221L14.35 15.002l-8.878-3.171 17.757-7.61zM15 21.132V17.5l1.754.877L15 21.132zm1.222-5.257L26 4.001v16.763l-9.778-4.889z"></path>
  </symbol>
  <symbol viewBox="0 0 31 30" xmlns="http://www.w3.org/2000/svg" id="settings">
    <path d="M30.25 18v-6h-4.425a10.9 10.9 0 0 0-.974-2.36l3.126-3.126-4.242-4.243-3.127 3.126a10.928 10.928 0 0 0-2.358-.972V0h-6v4.425c-.83.235-1.621.561-2.358.973L6.765 2.271 2.522 6.514 5.648 9.64A10.897 10.897 0 0 0 4.675 12H.25v6h4.425c.235.83.561 1.621.973 2.358l-3.126 3.126 4.243 4.242 3.125-3.125c.738.413 1.53.738 2.36.974V30h6v-4.425a10.92 10.92 0 0 0 2.36-.974l3.125 3.125 4.243-4.242-3.126-3.126c.412-.737.737-1.528.973-2.358h4.425zm-5.1 5.484l-1.415 1.414-2.874-2.873a8.965 8.965 0 0 1-4.611 1.916V28h-2v-4.059a8.965 8.965 0 0 1-4.611-1.916l-2.874 2.873-1.415-1.414 2.875-2.875A8.941 8.941 0 0 1 6.309 16H2.25v-2h4.059a8.954 8.954 0 0 1 1.917-4.611L5.351 6.514 6.765 5.1 9.64 7.975a8.957 8.957 0 0 1 4.61-1.916V2h2v4.059a8.94 8.94 0 0 1 4.61 1.916L23.735 5.1l1.414 1.414-2.875 2.875A8.954 8.954 0 0 1 24.191 14h4.059v2h-4.059a8.95 8.95 0 0 1-1.916 4.609l2.875 2.875zM15.25 10a5 5 0 1 0 0 10 5 5 0 0 0 0-10zm0 8a3 3 0 1 1 0-6 3 3 0 0 1 0 6z"></path>
  </symbol>
  <symbol viewBox="0 0 30 30" xmlns="http://www.w3.org/2000/svg" id="settings-active">
    <path d="M30 18v-6h-4.425a10.9 10.9 0 0 0-.974-2.36l3.126-3.126-4.242-4.243-3.127 3.126A10.928 10.928 0 0 0 18 4.425V0h-6v4.425c-.83.235-1.621.561-2.358.973L6.515 2.271 2.272 6.514 5.398 9.64A10.897 10.897 0 0 0 4.425 12H0v6h4.425c.235.83.561 1.621.973 2.358l-3.126 3.126 4.243 4.242 3.125-3.125c.738.413 1.53.738 2.36.974V30h6v-4.425a10.92 10.92 0 0 0 2.36-.974l3.125 3.125 4.243-4.242-3.126-3.126c.412-.737.737-1.528.973-2.358H30zm-15 2a5 5 0 1 1 0-10 5 5 0 1 1 0 10z"></path>
  </symbol>
  <symbol viewBox="0 0 32 23" xmlns="http://www.w3.org/2000/svg" id="share">
    <path d="M31.739 11.5L18.148 0v6.273C12.876 6.273.375 5.27.375 23c5.313-6.622 13.764-6.273 17.773-6.273V23l13.59-11.5zM2.907 17.953c1.062-4.737 2.973-10.21 15.24-9.59h2.092V4.51L28.5 11.5l-8.262 6.992v-3.856h-2.091c-10.684-.212-13.754 2.582-15.24 3.317z"></path>
  </symbol>
  <symbol viewBox="0 0 29 29" xmlns="http://www.w3.org/2000/svg" id="shift">
    <path d="M14.5 0L0 16.571h5.179V29H23.82V16.571H29L14.5 0zm7.25 14.5v12.429H7.25V14.5H4.565L14.5 3.145 24.435 14.5H21.75z"></path>
  </symbol>
  <symbol viewBox="0 0 29 29" xmlns="http://www.w3.org/2000/svg" id="shift-active">
    <path d="M14.5 0L0 16.571h5.179V29H23.82V16.571H29z"></path>
  </symbol>
  <symbol viewBox="0 0 32 31" xmlns="http://www.w3.org/2000/svg" id="star">
    <path d="M31.5 12.4H20.133L16 0l-4.133 12.4H.5l9.154 6.588L5.667 31 16 23.589 26.333 31l-3.987-12.012L31.5 12.4zm-9.133 13.212L16 21.046l-6.367 4.566 2.462-7.415-5.185-3.73h6.446L16 6.535l2.644 7.932h6.446l-5.185 3.73 2.462 7.415z"></path>
  </symbol>
  <symbol viewBox="0 0 29 29" xmlns="http://www.w3.org/2000/svg" id="star-active">
    <path d="M29 11.6H18.367L14.5 0l-3.867 11.6H0l8.564 6.162L4.834 29l9.666-6.933L24.167 29l-3.73-11.238z"></path>
  </symbol>
  <symbol viewBox="0 0 30 27" xmlns="http://www.w3.org/2000/svg" id="trophy">
    <path d="M29.679 4.821A4.82 4.82 0 0 0 24.857 0H5.571A4.82 4.82 0 0 0 .75 4.821c0 3.676 3.982 5.568 7.029 7.921 1.969 4.164 4.542 4.88 4.542 6.544 0 2.893-2.209 3.014-4.821 3.857V27h15.429v-3.857c-2.613-.843-4.822-.964-4.822-3.857 0-1.664 2.574-2.38 4.543-6.544 3.046-2.353 7.029-4.245 7.029-7.92zM24.82 1.93h.036a2.896 2.896 0 0 1 2.894 2.89c0 1.724-1.487 2.97-3.942 4.707.526-1.974.902-4.457 1.012-7.6zM2.678 4.82A2.896 2.896 0 0 1 5.57 1.93h.037c.111 3.142.487 5.625 1.013 7.6-2.455-1.74-3.941-2.986-3.941-4.71zM21 24.581v.49H9.429v-.49c2.11-.613 4.821-1.536 4.821-5.295 0-4.219-6.208-3.059-6.716-17.357h15.36c-.507 14.298-6.715 13.138-6.715 17.357 0 3.76 2.711 4.682 4.821 5.295zM14.25 3.857c-.078.158-.763.672-1.929.876V6.69a6.586 6.586 0 0 0 1.929-.533V13.5h1.929V3.857H14.25z"></path>
  </symbol>
  <symbol viewBox="0 0 29 27" xmlns="http://www.w3.org/2000/svg" id="trophy-active">
    <path d="M29 4.821A4.827 4.827 0 0 0 24.167 0H4.833A4.827 4.827 0 0 0 0 4.821c0 3.676 3.992 5.568 7.046 7.921 1.974 4.164 4.554 4.88 4.554 6.544 0 2.893-2.215 3.014-4.833 3.857V27h15.466v-3.857c-2.618-.843-4.833-.964-4.833-3.857 0-1.664 2.58-2.38 4.554-6.544C25.008 10.39 29 8.497 29 4.822zM24.13 1.93h.037a2.9 2.9 0 0 1 2.9 2.892c0 1.724-1.49 2.97-3.952 4.707.527-1.974.904-4.457 1.015-7.6zM1.933 4.82a2.9 2.9 0 0 1 2.9-2.892h.037c.111 3.142.488 5.625 1.015 7.6C3.424 7.79 1.933 6.544 1.933 4.82zm13.534 8.68h-1.934V6.159a6.615 6.615 0 0 1-1.933.533v-1.96c1.169-.203 1.855-.717 1.933-.875h1.934V13.5z"></path>
  </symbol>
  <symbol viewBox="0 0 29 29" xmlns="http://www.w3.org/2000/svg" id="twitter">
    <path d="M14.5 0C6.492 0 0 6.492 0 14.5S6.492 29 14.5 29 29 22.508 29 14.5 22.508 0 14.5 0zm5.898 11.878c.006.124.008.248.008.368 0 3.777-2.872 8.128-8.125 8.128a8.059 8.059 0 0 1-4.377-1.284c.222.027.45.038.681.038a5.72 5.72 0 0 0 3.547-1.222 2.862 2.862 0 0 1-2.668-1.982 2.87 2.87 0 0 0 1.288-.05 2.858 2.858 0 0 1-2.29-2.8v-.035a2.86 2.86 0 0 0 1.294.358 2.855 2.855 0 0 1-1.27-2.379c0-.522.14-1.015.386-1.436a8.12 8.12 0 0 0 5.886 2.986 2.857 2.857 0 0 1 4.867-2.605 5.736 5.736 0 0 0 1.812-.694 2.87 2.87 0 0 1-1.255 1.582 5.737 5.737 0 0 0 1.64-.452 5.79 5.79 0 0 1-1.424 1.479z"></path>
  </symbol>
  <symbol viewBox="0 0 22 27" xmlns="http://www.w3.org/2000/svg" id="up">
    <path d="M10.41 26.864V3.775l-8.204 8.203-1.342-1.342 10.5-10.5 10.5 10.5-1.342 1.342-8.204-8.203v23.089z"></path>
  </symbol>
  <symbol viewBox="0 0 26 25" xmlns="http://www.w3.org/2000/svg" id="upload">
    <path d="M12.163 3.666v17.488h1.924V3.666l6.34 6.34 1.352-1.352L13.125 0 4.471 8.654l1.352 1.352 6.34-6.34zM23.702 12.5v10.577H2.548V12.5H.625V25h25V12.5h-1.923z"></path>
  </symbol>
  <symbol viewBox="0 0 29 28" xmlns="http://www.w3.org/2000/svg" id="user">
    <path d="M21.115 15.477A8.966 8.966 0 0 0 23.875 9a9 9 0 0 0-9-9 9 9 0 0 0-9 9 8.966 8.966 0 0 0 2.76 6.477C4.037 17.771.875 22.513.875 28h28c0-5.487-3.162-10.229-7.76-12.523zM7.875 9a7 7 0 1 1 14 0 7 7 0 0 1-14 0zm2.603 7.849A8.956 8.956 0 0 0 14.875 18a8.95 8.95 0 0 0 4.396-1.151c3.848 1.521 6.732 4.967 7.438 9.151H3.042c.705-4.185 3.588-7.63 7.436-9.151z"></path>
  </symbol>
  <symbol viewBox="0 0 28 28" xmlns="http://www.w3.org/2000/svg" id="user-active">
    <path d="M14 18a9 9 0 0 0 9-9 9 9 0 0 0-9-9 9 9 0 0 0-9 9 9 9 0 0 0 9 9zm8.004-1.471A10.958 10.958 0 0 1 14 20a10.956 10.956 0 0 1-8.004-3.471C2.374 19.058 0 23.248 0 28h28c0-4.752-2.373-8.942-5.996-11.471z"></path>
  </symbol>
  <symbol viewBox="0 0 29 21" xmlns="http://www.w3.org/2000/svg" id="video">
    <path d="M28.636 1.91L21 5.726V3.818A3.83 3.83 0 0 0 17.182 0H3.818A3.83 3.83 0 0 0 0 3.818v13.364A3.83 3.83 0 0 0 3.818 21h13.364A3.83 3.83 0 0 0 21 17.182v-1.91l7.636 3.819V1.909zm-9.545 15.272a1.91 1.91 0 0 1-1.91 1.909H3.819a1.911 1.911 0 0 1-1.909-1.91V3.819A1.91 1.91 0 0 1 3.82 1.91h13.363a1.91 1.91 0 0 1 1.909 1.91v13.363zM21 7.862l2.864-1.432v8.14L21 13.138V7.862zm5.727 8.14l-.954-.477V5.475l.954-.477v11.004z"></path>
  </symbol>
  <symbol viewBox="0 0 27 26" xmlns="http://www.w3.org/2000/svg" id="globe">
    <path d="M13.25 0c-7.18 0-13 5.82-13 13s5.82 13 13 13 13-5.82 13-13-5.82-13-13-13zm-.867 6.038A16.88 16.88 0 0 1 9.39 5.62c.81-1.929 1.895-3.234 2.994-3.695v4.114zm0 1.733v4.362H8.072c.066-1.807.334-3.447.742-4.863 1.127.273 2.323.445 3.57.5zm0 6.096v4.362a18.627 18.627 0 0 0-3.569.5c-.408-1.415-.675-3.055-.742-4.862h4.311zm0 6.095v4.114c-1.1-.461-2.185-1.766-2.994-3.696a16.96 16.96 0 0 1 2.994-.418zm1.734 0a16.96 16.96 0 0 1 2.994.418c-.81 1.93-1.895 3.234-2.994 3.696v-4.114zm0-1.733v-4.362h4.311c-.066 1.807-.334 3.447-.742 4.863a18.714 18.714 0 0 0-3.57-.5zm0-6.096V7.771a18.558 18.558 0 0 0 3.569-.501c.408 1.416.675 3.056.741 4.863h-4.31zm0-6.095V1.924c1.1.462 2.185 1.767 2.994 3.695a16.88 16.88 0 0 1-2.994.42zm3.214-3.53a11.252 11.252 0 0 1 3.172 1.876c-.54.286-1.123.538-1.74.757-.407-1.003-.888-1.89-1.432-2.634zM7.736 5.14c-.616-.22-1.2-.471-1.74-.757A11.252 11.252 0 0 1 9.17 2.507c-.544.745-1.025 1.631-1.433 2.634zM7.16 6.783c-.467 1.607-.752 3.423-.82 5.35H2.028a11.204 11.204 0 0 1 2.688-6.475c.745.434 1.563.813 2.444 1.125zm-.82 7.084c.068 1.927.352 3.742.82 5.35-.881.312-1.7.691-2.445 1.125a11.203 11.203 0 0 1-2.687-6.475H6.34zm1.396 6.992c.408 1.002.89 1.89 1.433 2.634a11.272 11.272 0 0 1-3.172-1.877c.54-.286 1.123-.538 1.74-.757zm11.028 0c.616.22 1.2.471 1.74.757a11.272 11.272 0 0 1-3.173 1.877c.544-.745 1.025-1.631 1.433-2.634zm.576-1.642c.467-1.607.751-3.423.82-5.35h4.312a11.204 11.204 0 0 1-2.688 6.475 14.498 14.498 0 0 0-2.444-1.125zm.82-7.084c-.068-1.927-.352-3.743-.82-5.35.881-.312 1.7-.691 2.445-1.125a11.202 11.202 0 0 1 2.688 6.475H20.16z"></path>
  </symbol>
  <symbol viewBox="0 0 26 26" xmlns="http://www.w3.org/2000/svg" id="download">
    <path d="M22 13l-1.406-1.406L14 18.188V0h-2v18.188l-6.594-6.594L4 13l9 9 9-9zm2 0v11H2V13H0v13h26V13h-2z"></path>
  </symbol>
  <symbol viewBox="0 0 30 16" xmlns="http://www.w3.org/2000/svg" id="toggle">
    <g fill="none">
      <path d="M21.58 1.42a6.58 6.58 0 1 1 0 13.16" fill="#231F20"></path>
      <circle fill="#FFF" cx="8.42" cy="8" r="6.58"></circle>
      <path d="M21.58.42H8.42a7.58 7.58 0 0 0 0 15.16h13.16a7.58 7.58 0 0 0 0-15.16zM2.84 8A5.58 5.58 0 1 1 14 8 5.58 5.58 0 0 1 2.84 8z" fill="#DADBDD"></path>
    </g>
  </symbol>
  <symbol viewBox="0 0 29 16" xmlns="http://www.w3.org/2000/svg" id="toggle-active">
    <g transform="translate(-.625)" fill="none">
      <path d="M8.42 1.42a6.58 6.58 0 0 0 0 13.16m0 1a7.58 7.58 0 0 1 0-15.16v2a5.58 5.58 0 0 0 0 11.16v2z" fill="#E31C47"></path>
      <path d="M8.42 1.42h13.16a6.58 6.58 0 0 0 0 13.16H8.42a6.58 6.58 0 1 1 0-13.16z" fill="#E31C47"></path>
      <path d="M21.58 15.58H8.42a7.58 7.58 0 0 1 0-15.16h13.16v2a5.58 5.58 0 0 0 0 11.16v2zM8.42 2.42a5.58 5.58 0 0 0 0 11.16h8a7.58 7.58 0 0 1 0-11.16h-8z" fill="#E31C47"></path>
      <circle fill="#FFF" cx="21.58" cy="8" r="6.58"></circle>
      <path d="M21.58 15.58A7.58 7.58 0 1 1 29.16 8a7.59 7.59 0 0 1-7.58 7.58zm0-13.16a5.58 5.58 0 1 0 0 11.16 5.58 5.58 0 0 0 0-11.16z" fill="#E31C47"></path>
    </g>
  </symbol>
  <symbol viewBox="0 0 24 24" xmlns="http://www.w3.org/2000/svg" id="unarchive">
    <path d="M12.923 11.077V3.52l3.318 3.317 1.297-1.299L12 0 6.462 5.538l1.297 1.298 3.318-3.316v7.557h1.846zM20.308 0H14.61l1.847 1.846h2.458l3.165 11.077H1.92L5.085 1.846h2.458L9.39 0H3.692L0 12.923V24h24V12.923L20.308 0zm1.846 22.154H1.846v-7.385h20.308v7.385zm-3.692-1.846a1.847 1.847 0 1 0-.002-3.694 1.847 1.847 0 0 0 .002 3.694z"></path>
  </symbol>
  <symbol viewBox="0 0 29 29" xmlns="http://www.w3.org/2000/svg" id="writing">
    <path d="M23.423 0c-1.273 0-2.844.502-3.96 1.617L1.115 19.965 0 29l9.035-1.115L27.383 9.538C28.558 8.36 29 6.763 29 5.577A5.576 5.576 0 0 0 23.423 0zm-3.72 4.533l1.6 1.602L6.136 21.304l-1.602-1.602 15.17-15.17zM2.563 26.436l.614-4.967 4.352 4.353-4.966.614zm6.734-1.969l-1.602-1.602 15.17-15.169 1.601 1.602-15.17 15.17zM26 7.707L21.293 3c.686-.547 1.548-.768 2.13-.768a3.35 3.35 0 0 1 3.346 3.346c0 .583-.22 1.444-.768 2.13zM13.385 29h13.384v-2.23H13.385V29z"></path>
  </symbol>
</svg>