<?xml version="1.0" encoding="UTF-8"?>
<svg width="599px" height="438px" viewBox="0 0 599 438" version="1.1" xmlns="http://www.w3.org/2000/svg" xmlns:xlink="http://www.w3.org/1999/xlink">
    <!-- Generator: Sketch 51.3 (57544) - http://www.bohemiancoding.com/sketch -->
    <title>startup</title>
    <desc>Created with Sketch.</desc>
    <defs></defs>
    <g id="Icon" stroke="none" stroke-width="1" fill="none" fill-rule="evenodd">
        <g id="Artboard-2" transform="translate(-74.000000, -24.000000)">
            <g id="startup" transform="translate(74.000000, 24.000000)">
                <g id="фон">
                    <path d="M31.4321546,212.52157 C14.4140989,231.229066 4.01494037,254.981634 1.23636352,280.121775 C-1.93457951,308.811172 -0.305849823,352.071546 28.8194669,388.385848 C43.375114,406.534133 62.8420848,420.072435 84.7259572,427.956964 C182.042556,463.018401 236.110508,393.112278 476.702138,411.02661 C500.831731,412.823337 525.034612,407.702309 546.190371,395.956499 C574.803998,380.070199 603.524249,349.190008 598.065253,289.544201 C588.451885,184.507566 560.262638,112.655982 490.015866,41.5324568 C451.392007,2.4265994 393.270222,-10.4770659 342.094879,9.56030937 C338.532364,10.9552931 334.574837,12.9634767 330.857015,15.0380882 C324.105565,18.8059468 317.700181,23.157629 311.61705,27.9303734 C286.109016,47.9441946 233.448873,75.2497233 180.413826,51.6453607 C174.175389,48.8688906 167.667614,46.7365849 160.960613,45.4556665 C141.619316,41.7621752 107.052994,40.3214066 82.2431762,68.297565 C70.8989523,81.0895468 64.1811038,97.3267758 62.8701299,114.376224 C62.0361864,125.223009 61.1898079,139.662189 61.6382641,149.379966 C62.4404585,166.766846 60.5685835,187.630731 41.8498335,202.610331 C38.1732858,205.553003 34.6769143,208.954582 31.4321546,212.52157 Z" id="Shape" fill="#CED7DD" fill-rule="nonzero"></path>
                    <path d="M80.3503997,110.96988 C80.2141431,110.63536 80.0511643,110.314865 79.8633154,110.011044 L77.0074823,104.388236 L72.3377164,104.388236 L69.2120159,109.479092 C68.9413547,109.832933 68.7053529,110.214562 68.5111542,110.620539 C68.1068821,111.465839 67.8801405,112.412237 67.8801405,113.412094 C67.8801405,116.988609 70.7785702,119.887878 74.3540499,119.887878 C77.9295296,119.887878 80.8279594,116.988609 80.8279594,113.412094 C80.8282239,112.547474 80.6575724,111.723611 80.3503997,110.96988 Z" id="Shape" fill="#FFFFFF" fill-rule="nonzero"></path>
                    <path d="M367.190439,2.48694018 C368.399552,8.82298731 371.612033,22.538342 378.822522,37.2252363 C401.031558,82.4601825 465.448664,83.7368665 493.96916,45.6726816" id="Shape" stroke="#FFFFFF" stroke-width="3"></path>
                    <path d="M354.989254,5.36636012 C354.989254,7.652429 354.989254,62.7226586 354.989254,62.7226586" id="Shape" stroke="#FFFFFF" stroke-width="3"></path>
                    <path d="M56.1530751,145.877554 C54.9751829,140.529984 49.3013511,137.465043 44.2056179,139.465552 C37.4748052,142.107578 28.3625442,148.522756 24.8701413,164.084592 C19.8376418,186.50834 11.6413428,200.077341 20.9015018,204.311782 C24.5769912,205.992591 29.9793679,203.497976 33.5241568,201.55622 C41.0965857,197.40832 55.3381811,187.114659 56.8838339,167.789728 C57.721746,157.312662 57.1499973,150.402848 56.1530751,145.877554 Z" id="Shape" fill="#CED7DD" fill-rule="nonzero"></path>
                    <path d="M258.746569,24.2871662 C248.401649,26.0913027 227.942783,30.133606 214.565557,38.3539795 C208.833783,41.8762405 206.078489,49.5580459 216.283184,52.585936 C220.583867,53.8620906 226.664352,54.9611927 235.421287,54.7722308 C258.634654,54.2709789 286.030966,36.2563432 276.094022,26.548887 C272.827567,23.357971 263.244361,23.502736 258.746569,24.2871662 Z" id="Shape" fill="#CED7DD" fill-rule="nonzero"></path>
                    <path d="M213.604617,60.3270236 L213.592447,60.3254356 C210.770744,60.0658115 207.931314,59.6910634 205.078127,59.1913994 C202.561745,59.1255009 200.269459,59.1765789 197.902827,58.4879529 C195.704994,57.5677559 193.666436,56.7235142 191.773924,55.9478175 C187.99578,54.7595275 184.205993,53.3330502 180.414355,51.6456254 C176.786489,50.0309801 173.06708,48.636261 169.270944,47.4979903 L126.556477,47.4979903 L126.556477,157.607485 L213.604882,157.607485 L213.604882,60.3270236 L213.604617,60.3270236 Z" id="Shape" fill="#FFFFFF" fill-rule="nonzero" opacity="0.47"></path>
                    <path d="M219.033451,73.1907263 C219.033451,109.183476 219.033451,163.290634 219.033451,163.290634 L121.127642,163.290634 C121.127642,163.290634 121.127642,65.7778079 121.127642,45.4863662" id="Shape" stroke="#FFFFFF" stroke-width="3" opacity="0.47"></path>
                    <path d="M249.120502,57.9644701 L249.120502,146.088218 L351.018762,146.088218 L351.018762,30.1703927 C351.018762,30.1703927 313.906426,30.1703927 309.289046,30.1703927" id="Shape" stroke="#FFFFFF" stroke-width="3" opacity="0.47"></path>
                    <rect id="Rectangle-path" fill="#FFFFFF" fill-rule="nonzero" opacity="0.47" x="386.116352" y="47.498255" width="87.048405" height="110.109495"></rect>
                    <rect id="Rectangle-path" stroke="#FFFFFF" stroke-width="3" opacity="0.47" x="380.687518" y="41.8151057" width="97.9060738" height="121.475529"></rect>
                    <path d="M94.4536219,389.833233 L164.301678,389.833233" id="Shape" stroke="#FFFFFF" stroke-width="1.5"></path>
                    <path d="M176.736749,389.833233 L200.813163,389.833233" id="Shape" stroke="#FFFFFF" stroke-width="1.5"></path>
                    <path d="M178.853357,367.039236 L443.693905,367.039236" id="Shape" stroke="#FFFFFF"></path>
                    <rect id="Rectangle-path" fill="#FFFFFF" fill-rule="nonzero" x="395.10929" y="322.987552" width="12.6996466" height="12.7033233"></rect>
                    <ellipse id="Oval" fill="#E8EAF4" fill-rule="nonzero" cx="401.124954" cy="329.339213" rx="2.84075221" ry="2.84157462"></ellipse>
                    <ellipse id="Oval" fill="#FFFFFF" fill-rule="nonzero" cx="402.127697" cy="329.004957" rx="3.17491166" ry="3.17583082"></ellipse>
                    <path d="M360.932953,69.4188979 C360.796697,69.084377 360.633718,68.7638828 360.445869,68.4600616 L357.590036,62.8375178 L352.92027,62.8375178 L349.794834,67.9283746 C349.524173,68.2819505 349.288171,68.6638441 349.093972,69.0698211 C348.6897,69.9151215 348.462958,70.861519 348.462958,71.8611118 C348.462958,75.4376266 351.361388,78.3368955 354.936868,78.3368955 C358.512348,78.3368955 361.410777,75.4376266 361.410777,71.8611118 C361.410777,70.9967565 361.240126,70.1726284 360.932953,69.4188979 Z" id="Shape" fill="#FFFFFF" fill-rule="nonzero"></path>
                    <path d="M359.793424,65.7370514 L350.297793,65.7370514 L350.297793,60.987861 C350.297793,58.3648894 352.423396,56.2386707 355.045609,56.2386707 C357.667821,56.2386707 359.793424,58.3648894 359.793424,60.987861 L359.793424,65.7370514 Z" id="Shape" fill="#F0F1F2" fill-rule="nonzero"></path>
                    <path d="M281.03101,91.6497136 C280.894753,91.3151927 280.731774,90.9946985 280.543925,90.6908773 L277.688092,85.0683335 L273.018326,85.0683335 L269.89289,90.1591903 C269.622229,90.5127662 269.386227,90.8946598 269.192029,91.3006369 C268.787757,92.1459372 268.561015,93.0923347 268.561015,94.0919275 C268.561015,97.6684423 271.459445,100.567711 275.034924,100.567711 C278.610404,100.567711 281.508834,97.6684423 281.508834,94.0919275 C281.508834,93.2275722 281.338182,92.4034441 281.03101,91.6497136 Z" id="Shape" fill="#FFFFFF" fill-rule="nonzero"></path>
                    <path d="M74.943212,79.127148 C74.9418985,79.1284713 74.940585,79.1297946 74.9388337,79.1311178 L74.443212,100.304382 C74.443212,100.304382 74.7181682,90.4341644 74.943212,79.127148 Z" id="Shape" stroke="#FFFFFF" stroke-width="3"></path>
                    <path d="M90.3347032,60.8788242 C100.745503,71.7422828 117.501629,82.800261 144.027751,87.1410924 C157.95794,89.420545 172.147414,89.2977462 186.087658,87.0871033 C219.73299,81.7517076 241.352287,69.0301233 254.852805,56.9508508" id="Shape" stroke="#FFFFFF" stroke-width="3"></path>
                    <path d="M275.04071,49.9126804 C274.96921,66.1986054 275.04221,85.2181269 275.04221,85.2181269" id="Shape" stroke="#FFFFFF" stroke-width="3"></path>
                    <path d="M279.891481,87.9678671 L270.395849,87.9678671 L270.395849,83.2186767 C270.395849,80.5957051 272.521453,78.4694864 275.143665,78.4694864 C277.765878,78.4694864 279.891481,80.5957051 279.891481,83.2186767 L279.891481,87.9678671 Z" id="Shape" fill="#F0F1F2" fill-rule="nonzero"></path>
                    <path d="M79.2106064,107.287769 L69.7147102,107.287769 L69.7147102,102.538314 C69.7147102,99.9153426 71.8405782,97.7888592 74.4627906,97.7888592 C77.0850031,97.7888592 79.210871,99.9153426 79.210871,102.538314 L79.210871,107.287769 L79.2106064,107.287769 Z" id="Shape" fill="#F0F1F2" fill-rule="nonzero"></path>
                    <path d="M345.368478,35.328736 L301.404947,35.4600036 C288.986015,43.6523239 272.906146,51.8753438 254.770522,56.6388254 L254.770522,140.400305 L345.368478,140.400305 L345.368478,35.328736 Z" id="Shape" fill="#FFFFFF" fill-rule="nonzero" opacity="0.47"></path>
                    <path d="M278.080988,30.1862719 C277.281174,30.1868012 248.813858,30.2074441 248.813858,30.2074441 L248.830262,52.7632532" id="Shape" stroke="#FFFFFF" stroke-width="3" opacity="0.47"></path>
                    <path d="M276.746466,35.7280967 L253.992933,35.7445051 L254.004045,51.1996858 C264.442096,47.4630562 273.836131,41.2858006 276.746466,35.7280967 Z" id="Shape" fill="#FFFFFF" fill-rule="nonzero" opacity="0.47"></path>
                </g>
                <g id="_x34_" transform="translate(361.410777, 49.754683)">
                    <polygon id="Shape" fill="#BA806D" fill-rule="nonzero" points="58.4607067 287.641613 65.7894611 300.624674 73.2727279 296.397908 60.9426939 272.472257"></polygon>
                    <polygon id="Shape" fill="#BA806D" fill-rule="nonzero" points="50.5797822 295.899038 50.5797822 310.80877 58.8131219 310.80877 59.7941696 283.910806"></polygon>
                    <path d="M45.2951418,226.63655 C40.9590062,217.419495 37.9780287,209.015982 35.2677125,200.883208 C35.2677125,200.883208 40.41689,177.027691 42.3138997,165.913077 C43.7973772,157.220828 46.1915252,156.368911 48.5470451,148.292509 C56.1099492,122.360792 53.944924,97.7899178 51.7992129,93.5329813 C46.7018922,83.421136 26.7512765,98.3734767 26.7512765,98.3734767 C26.7512765,98.3734767 13.0864567,152.166228 9.45277032,193.365752 C8.99981625,198.502394 9.95520009,203.664442 12.1850464,208.313859 C13.2272111,210.486921 14.2876316,212.633782 14.9866413,213.883737 C34.3909077,248.582864 40.4174192,256.730723 58.1400406,289.556639 C58.1400406,289.556639 62.0017915,290.260615 65.1539496,280.594445 C65.1542142,280.594445 58.8927593,255.540051 45.2951418,226.63655 Z" id="Shape" fill="#FFFFFF" fill-rule="nonzero"></path>
                    <path d="M45.2951418,226.63655 C43.5918017,223.015573 41.632352,218.247063 40.2814271,214.844161 C40.3563021,214.92488 47.6927292,270.607515 47.6927292,270.607515 L50.9909333,239.476698 C49.259019,235.334886 47.3625384,231.030576 45.2951418,226.63655 Z" id="Shape" fill="#E8E8E8" fill-rule="nonzero"></path>
                    <path d="M60.646898,288.554665 C60.646898,288.554665 57.0960239,277.575024 62.3759019,270.640862 L65.214273,280.447298 C65.214273,280.447033 63.8591148,285.86897 60.646898,288.554665 Z" id="Shape" fill="#E8E8E8" fill-rule="nonzero"></path>
                    <path d="M47.7342677,104.376326 C47.7342677,104.376326 39.0619965,170.250468 42.3141643,211.997558 C45.4020305,251.636425 47.462019,261.560103 49.8077496,298.793543 C49.8077496,298.793543 53.0197019,301.05103 59.9298971,293.594708 C59.9298971,293.594708 64.1956555,267.969194 62.968023,236.048918 C62.2991749,218.659921 64.4295406,200.915761 69.1845,183.512208 C71.5085353,175.006274 73.5920711,164.797566 74.9813595,156.500179 C79.442375,129.858663 55.7861082,112.417795 53.1546356,108.442978 C46.9032345,99.0007033 47.7342677,104.376326 47.7342677,104.376326 Z" id="Shape" fill="#FFFFFF" fill-rule="nonzero"></path>
                    <path d="M30.1738313,5.45025498 C30.1738313,5.45025498 34.6345822,-1.19596495 43.4566034,0.482726284 C52.2786246,2.16115287 59.8865066,9.30491964 62.5896793,23.4601269 C64.2215839,32.006023 69.140845,35.4946731 75.3377434,40.6437535 C82.5085459,46.6021414 87.2931378,55.0143879 88.4493348,64.267171 C89.524307,72.8704967 87.7762535,82.0626743 80.1281559,90.678968 C67.8909881,104.46472 37.4922672,78.3445704 37.4922672,78.3445704 L19.5299399,60.111861 C19.5299399,60.111861 15.5552151,55.4645619 18.582758,45.4900713 C20.5697235,38.9444193 21.2195221,32.0772145 20.7829717,25.2502369 C20.2813357,17.4067287 21.5867535,7.90596616 30.1738313,5.45025498 Z" id="Shape" fill="#543C38" fill-rule="nonzero"></path>
                    <path d="M35.7574426,40.3147903 C35.7574426,40.3147903 36.7702394,46.6783613 35.2700936,50.8897776 C33.7699479,55.101194 49.144193,56.602568 51.6380861,50.5814574 C51.6380861,50.5814574 47.0005985,39.5060121 46.3365128,32.3593341 C45.6724271,25.2126562 35.7574426,40.3147903 35.7574426,40.3147903 Z" id="Shape" fill="#BA806D" fill-rule="nonzero"></path>
                    <path d="M44.8609726,39.519774 C47.397727,33.4166211 38.6532266,40.8377438 36.0370994,43.1431323 C36.1048308,44.3332749 36.1252032,45.7769547 35.9990004,47.2330731 C38.0690428,46.6971517 42.6094311,44.9369474 44.8609726,39.519774 Z" id="Shape" fill="#B07866" fill-rule="nonzero"></path>
                    <path d="M24.5629686,16.6799927 C24.5629686,16.6799927 18.5213763,28.0325293 29.0374775,40.6516931 C29.6258944,41.3580508 30.8410919,42.4521245 31.6091559,42.9753426 C33.9712902,44.5839009 36.1532482,45.0330163 40.0374881,43.2267625 C42.9793083,41.8587734 45.1832261,40.2226912 46.7540137,38.6945873 C48.3732186,37.1193752 49.1137668,35.0077124 48.7931007,32.9113994 C47.6162668,25.2200665 41.0944691,-6.36251239 24.5629686,16.6799927 Z" id="Shape" fill="#BA806D" fill-rule="nonzero"></path>
                    <path d="M28.8991042,12.3426018 C28.8991042,12.3426018 35.8180305,22.5730115 45.9851559,21.8168991 C56.1522814,21.0607867 47.1992951,9.5640145 47.1992951,9.5640145 C47.1992951,9.5640145 30.5013763,5.23720967 28.8991042,12.3426018 Z" id="Shape" fill="#543C38" fill-rule="nonzero"></path>
                    <path d="M29.7838463,12.8404133 C29.7838463,12.8404133 22.8223233,16.9615831 22.9371493,25.8970477 C23.0519753,34.8325124 21.5822557,34.9510767 21.5822557,34.9510767 L21.7132208,19.7102647 L22.3712213,13.2350103 L25.8996064,9.20779215 L31.9353781,8.41171722 L29.7838463,12.8404133 Z" id="Shape" fill="#543C38" fill-rule="nonzero"></path>
                    <path d="M46.948477,28.8783589 C46.948477,28.8783589 43.8047853,44.6018973 56.5420018,55.4455069 C66.579485,63.9906091 61.2503958,30.428429 53.211784,20.5015758 C50.5234276,17.1815094 46.7934355,21.0777245 46.948477,28.8783589 Z" id="Shape" fill="#543C38" fill-rule="nonzero"></path>
                    <path d="M45.4194925,22.0341789 C45.4194925,22.0341789 47.2191383,19.0549849 49.1632425,20.5642985 C50.8959505,21.9095275 48.9783039,29.508232 46.3298984,29.6350006 C43.6814929,29.7617692 40.8841312,25.6480097 45.4194925,22.0341789 Z" id="Shape" fill="#BA806D" fill-rule="nonzero"></path>
                    <path d="M35.3402063,50.5367311 C35.3402063,50.5367311 26.0374505,49.4516556 19.7154077,57.4984169 C13.3933648,65.5454429 10.9156109,78.0553051 9.11543595,96.6505885 L19.8201798,104.376591 C19.8201798,104.376591 24.2917783,115.897711 43.5333304,111.831589 C56.3295473,109.127369 62.5039567,111.560585 62.5039567,111.560585 C62.5039567,111.560585 72.8610477,83.0606792 68.1949859,64.3915577 C66.8400923,58.9698852 63.7781546,55.814168 60.4929148,53.4725221 C58.0273313,51.7149644 54.3735371,50.2951033 51.1216338,49.481826 C51.1218984,49.4812967 41.4897456,55.8303118 35.3402063,50.5367311 Z" id="Shape" fill="#E2B2AE" fill-rule="nonzero"></path>
                    <path d="M24.5629686,74.9636338 C24.5629686,74.9636338 17.2381829,92.8782308 18.8719395,99.632429 C20.5056961,106.386627 20.7689492,104.512093 20.7689492,104.512093 C20.7689492,104.512093 19.9559072,86.0779831 24.5629686,74.9636338 Z" id="Shape" fill="#D9A09E" fill-rule="nonzero"></path>
                    <path d="M8.30265857,101.800992 C8.30265857,101.800992 6.40564885,108.849219 13.1809103,111.018047 C15.4824567,111.75484 18.7772213,111.054305 20.2270976,109.120488 C21.8531815,106.95166 22.1241073,103.427547 18.8719395,99.632429 C11.5400102,91.0762115 7.71397703,101.626851 7.71397703,101.626851" id="Shape" fill="#E6C2C2" fill-rule="nonzero"></path>
                    <path d="M49.4958145,109.933766 C49.4958145,109.933766 50.8205464,115.783117 56.6832853,115.779676 C59.715326,115.778088 62.7751471,114.270892 64.1303052,110.746778 C65.0904514,108.249781 65.214273,103.698551 58.7234307,100.73656 L49.4958145,109.933766 Z" id="Shape" fill="#E6C2C2" fill-rule="nonzero"></path>
                    <path d="M54.3738017,70.354974 C54.3738017,70.354974 52.5947928,86.292881 48.7047323,96.0064242 C44.8146718,105.719967 52.5244156,101.803903 52.5244156,101.803903 C52.5244156,101.803903 54.0541939,88.5654526 54.3738017,70.354974 Z" id="Shape" fill="#D9A09E" fill-rule="nonzero"></path>
                    <path d="M10.7415199,66.8308604 C10.7415199,66.8308604 3.47044302,99.0509873 9.84725309,106.631166 C12.8533653,110.20477 16.9564095,109.192474 18.8793476,107.247807 C19.7079996,106.409652 20.0215221,105.189604 19.7831391,104.035189 C17.0630336,90.8539033 12.6480543,68.6217644 13.5920614,66.7514647 C14.5556471,64.843055 10.7415199,66.8308604 10.7415199,66.8308604 Z" id="Shape" fill="#BA806D" fill-rule="nonzero"></path>
                    <path d="M60.9215278,102.698429 C58.230261,100.483816 32.4774943,79.265826 27.4108644,74.0810175 L22.4508587,76.9517039 C22.4508587,76.9517039 27.4047792,85.5656157 50.8435645,111.458429 C51.9685415,112.701237 53.5263648,113.508163 55.200337,113.592058 C60.7754819,113.871531 64.202799,106.633019 61.3429973,103.10864 C61.2194404,102.955936 61.073659,102.823345 60.9215278,102.698429 Z" id="Shape" fill="#BA806D" fill-rule="nonzero"></path>
                    <polygon id="Shape" fill="#FFFFFF" fill-rule="nonzero" points="20.9538878 53.0056749 19.3791316 73.8790876 6.77975928 73.8790876 4.02367138 53.0056749"></polygon>
                    <path d="M20.9538878,53.0056749 L19.378867,73.8793523 L12.488515,73.8793523 C18.9253838,73.133826 20.9538878,53.0056749 20.9538878,53.0056749 Z" id="Shape" fill="#E9E9EB" fill-rule="nonzero"></path>
                    <path d="M6.77975928,60.0946586 C6.77975928,60.0946586 2.84260424,58.5191819 0.873894435,60.0946586 C-1.09481537,61.6701353 1.26758348,67.1839069 6.77975928,69.1529221" id="Shape" stroke="#FFFFFF" stroke-width="4"></path>
                    <path d="M24.8521502,79.8761148 C24.0388436,79.159171 23.0498587,78.7725136 22.0860084,78.2757607 C20.0495671,77.2264133 17.4072469,75.3322949 16.2486687,73.032464 C14.9413989,70.437281 14.3495424,69.3985196 13.2960009,68.1514767 C12.7874859,67.5496568 12.220235,67.0007674 11.6183246,66.4926344 C11.2696135,66.1980761 10.9071444,65.8185644 10.8513189,65.4776918 C10.8513189,65.4776918 7.24038604,63.8249366 7.0525371,62.7594453 C6.86468816,61.6939541 7.61978799,62.0721426 7.61978799,62.0721426 C7.61978799,62.0721426 6.4403083,60.8928508 7.08322792,60.4895202 C7.84176723,60.0134103 10.6645283,60.6615444 13.1594797,61.9493438 C15.6544311,63.2371432 17.3699417,64.2896665 17.3699417,64.2896665 C17.3699417,64.2896665 16.4021228,63.015629 14.772864,61.8961486 C13.1438697,60.7766683 11.2629991,60.4577619 10.7095062,59.61749 C10.1560133,58.7772181 10.0821966,58.2876109 11.2280751,58.2712024 C12.3739536,58.254794 15.7552345,59.7540508 16.6770172,60.2632423 C17.5987999,60.7724338 18.8573878,62.3288556 18.8573878,62.3288556 C18.8573878,62.3288556 18.9576621,61.652139 19.5079801,61.7071867 C20.0582981,61.7622344 21.0626285,64.2253559 21.8306926,64.9645305 C22.5987566,65.7037051 25.0283578,69.854516 25.5971961,70.949913 C26.1660345,72.04531 34.7324753,81.2403988 39.4683852,84.7224326 L34.0482818,91.7706598 C34.0482818,91.7709245 29.6531458,84.1076447 24.8521502,79.8761148 Z" id="Shape" fill="#BA806D" fill-rule="nonzero"></path>
                    <path d="M59.5975897,315.936413 L59.3361886,314.061879 L59.0059978,308.246933 C59.0059978,308.246933 57.7074589,309.394202 55.6297438,309.090116 C55.6506453,309.067091 55.6649324,309.050947 55.6649324,309.050947 C55.6649324,309.050947 52.0307169,302.586544 49.5664563,306.276065 C49.0907487,306.988245 48.6319739,307.707306 48.1181674,308.390904 C47.0281144,309.840935 45.2390517,312.070369 43.1335561,314.111634 C40.9439254,316.1484 39.0125208,317.954389 39.0630548,318.855531 C39.0731087,319.035495 39.0963913,319.215459 39.1281405,319.394364 C39.1215261,319.381131 39.1138534,319.369486 39.1075035,319.355989 C39.1075035,319.355989 39.1339611,319.482228 39.1911095,319.689981 C39.2305314,319.849037 39.278155,320.00624 39.3347743,320.161592 C39.7250239,321.335061 40.6624165,323.412584 42.4821701,323.748163 C45.0006687,324.212628 48.9579315,324.143554 59.1779722,316.916422 C59.4869969,316.697819 59.6505049,316.31566 59.5975897,315.936413 Z" id="Shape" fill="#D9A09E" fill-rule="nonzero"></path>
                    <path d="M78.3597301,298.669421 L76.7783595,297.630395 L72.1892893,294.045411 C72.1892893,294.045411 72.1956391,295.778356 70.5973357,297.140788 C70.5936316,297.110088 70.5912504,297.088387 70.5912504,297.088387 C70.5912504,297.088387 63.3360481,295.560283 64.484837,299.845802 C64.7065517,300.672841 64.9444055,301.492205 65.1195548,302.329302 C65.4910194,304.10512 65.987364,306.920494 66.133939,309.849934 C66.2215137,312.839714 66.3056489,315.482799 67.0165645,316.038834 C67.1586418,316.149988 67.3089209,316.251085 67.4644916,316.345037 C67.4502045,316.341332 67.4364466,316.339215 67.4218949,316.335245 C67.4218949,316.335245 67.5343397,316.398497 67.7280093,316.492448 C67.8735261,316.56761 68.0230115,316.635625 68.1772593,316.695172 C69.316788,317.175252 71.4963648,317.839795 72.9480932,316.692261 C74.9575477,315.104081 77.5144099,312.082013 78.819034,299.630639 C78.8592496,299.254568 78.6796025,298.879555 78.3597301,298.669421 Z" id="Shape" fill="#D9A09E" fill-rule="nonzero"></path>
                </g>
                <g id="_x35_" transform="translate(414.061396, 89.717221)">
                    <path d="M36.1217637,228.64341 L46.3799033,264.906899 L52.9953609,267.770705 L58.5620393,265.031021 C58.5620393,265.031021 54.2184956,217.809063 51.5240539,219.973392 C48.8301413,222.137721 36.1217637,228.64341 36.1217637,228.64341 Z" id="Shape" fill="#80574C" fill-rule="nonzero"></path>
                    <path d="M66.0164673,245.49675 L70.8224898,280.658226 L81.2608057,280.233988 C81.2608057,280.233988 85.1789112,238.075363 82.3495358,239.921315 C79.5201603,241.767266 66.0164673,245.49675 66.0164673,245.49675 Z" id="Shape" fill="#80574C" fill-rule="nonzero"></path>
                    <path d="M141.103128,197.014253 L149.690206,285.830066 C149.83096,287.285126 149.315831,288.570279 148.560466,288.647822 C147.90617,288.715044 147.285475,287.845396 147.101065,286.603381 L133.681243,196.158366 L141.103128,197.014253 Z" id="Shape" stroke="#FFE9E4" stroke-width="3"></path>
                    <path d="M138.249412,226.945929 L93.8210208,214.070317" id="Shape" stroke="#FFE9E4" stroke-width="3"></path>
                    <path d="M136.369335,214.070317 L91.6530852,226.879501" id="Shape" stroke="#FFE9E4" stroke-width="3"></path>
                    <path d="M127.413703,135.766767 L156.37022,135.766767 C161.443729,135.766767 165.556562,140.321173 165.556562,145.939483 L165.556562,177.711288 C165.556562,189.625153 156.834815,199.283384 146.076363,199.283384 L71.6487606,199.283384 C68.6191011,199.283384 66.163307,196.563814 66.163307,193.208813 L66.163307,192.686654 C66.163307,190.064211 68.0793662,187.93614 70.4473211,187.928201 L67.4671374,171.948479 L127.413703,135.766767 Z" id="Shape" fill="#FFE9E4" fill-rule="nonzero"></path>
                    <path d="M118.450663,135.766767 L142.710956,135.766767 C145.766015,135.766767 148.24615,136.701785 150.086541,139.468198 C151.342483,141.355965 151.949155,143.587251 151.949155,145.839709 L151.949155,168.046176 C151.949155,177.326219 143.100412,185.241712 134.086573,185.241712 L69.5911533,187.166531 L70.6417845,176.117815 L118.450663,135.766767 Z" id="Shape" fill="#F7DFDA" fill-rule="nonzero"></path>
                    <path d="M67.8595035,22.9125607 C67.8595035,22.9125607 63.1868273,19.8566175 61.9607822,13.7444665 C61.2268485,10.0867033 64.0149501,6.63933897 67.7446776,6.6163142 C67.7827765,6.61604955 67.82114,6.61604955 67.8597681,6.61604955 C71.7106714,6.61604955 69.6371895,2.17147432 82.9667915,1.28250634 C82.9667915,1.28250634 92.4457549,-3.16206888 97.1851042,5.43067069 C101.18417,12.6808278 106.026439,10.6496193 106.730476,16.4230151 C106.998756,18.6238659 106.483362,20.849594 105.359443,22.7606502 L103.701875,25.5792 C103.701875,25.5792 107.256453,39.2090719 96.5927186,40.0980399 L67.8595035,22.9125607 Z" id="Shape" fill="#000000" fill-rule="nonzero"></path>
                    <path d="M81.5206193,43.7386006 C81.5206193,43.7386006 86.8938927,55.251252 87.701114,59.1016822 C88.5083352,62.9521124 103.021121,50.7558634 103.021121,50.7558634 C103.021121,50.7558634 93.6421674,34.9373148 92.2814532,30.3273317 C90.4585247,24.1511347 81.5206193,43.7386006 81.5206193,43.7386006 Z" id="Shape" fill="#80574C" fill-rule="nonzero"></path>
                    <path d="M92.2026095,38.5969305 C93.2333975,29.4616532 81.5206193,43.7386006 81.5206193,43.7386006 C81.5206193,43.7386006 82.7770905,46.4311758 84.166379,49.6474985 C84.0454678,49.4712399 90.2786131,48.6579625 92.2026095,38.5969305 Z" id="Shape" fill="#7A4C41" fill-rule="nonzero"></path>
                    <path d="M68.73525,15.9175287 C68.73525,15.9175287 68.5852354,21.4709982 69.6205212,24.9133341 C69.6205212,24.9133341 65.5637778,32.5197136 65.733371,33.3284918 C65.9029642,34.1375347 67.9896749,35.1072218 67.9896749,35.1072218 C67.9896749,35.1072218 70.0417261,42.5391952 72.6104943,46.3414586 C73.7566374,48.0384109 76.1862385,49.199971 78.7563295,48.3006816 C79.3444819,48.0947819 86.9044757,45.2055698 92.2796011,39.3533076 C95.3849293,35.9721063 97.0549329,31.4777764 96.7961776,26.8937293 C96.7435269,25.9589764 96.6189117,25.0599517 96.3805287,24.3244822 C95.2947089,20.9739807 90.0251493,20.8445656 88.6244841,24.1982429 C88.5879726,24.2858429 88.5530486,24.3758248 88.5202412,24.4687178 L81.1893701,8.98601329 L68.73525,15.9175287 Z" id="Shape" fill="#80574C" fill-rule="nonzero"></path>
                    <path d="M21.6330543,89.6944604 C21.6330543,89.6944604 20.1471957,86.4731094 17.8866586,85.0889764 C14.6421634,83.1022296 12.3713079,83.5190574 10.475621,81.5275468 C9.81153534,80.8299227 9.34535247,80.4575565 9.01965945,80.2680653 C8.68364797,80.0727517 8.2153485,80.4588798 8.19074293,80.9556326 C8.14311926,81.9168508 8.34790106,83.5976592 10.0515057,84.8608459 C10.0515057,84.8608459 9.45144744,85.578319 8.40266829,85.3205474 C7.35362456,85.0627758 5.4603189,85.4166163 3.49346113,83.5899843 C1.52660336,81.7633523 0.213248233,81.7818779 0.173297261,82.5459299 C0.13334629,83.3102465 2.84472085,86.4355287 2.84472085,86.4355287 C2.84472085,86.4355287 2.34705345,87.5880906 3.20269214,87.9578103 C3.48843419,88.0811384 3.82047703,88.2465462 4.193,88.4437124 C3.64929638,90.1962417 5.63414532,90.8650187 6.76547217,91.9400375 C6.76547217,91.9400375 7.18217933,92.9065486 8.77624956,93.9908302 C8.97230035,94.1242151 9.18052164,94.2414562 9.38768463,94.3576387 C10.3488891,94.895942 12.4509452,96.5828375 17.1897655,96.3269184 C18.0372023,96.2811335 22.829996,98.6545378 29.852636,103.47439 C31.8798171,104.865669 33.3254602,95.9508471 33.3254602,95.9508471 L21.6330543,89.6944604 Z" id="Shape" fill="#80574C" fill-rule="nonzero"></path>
                    <path d="M69.1400512,23.1756254 C69.1400512,23.1756254 67.4152805,14.4680266 72.74728,15.3567299 C78.0792796,16.2456979 75.7094726,29.8755698 86.6695322,26.9125196 C86.6695322,26.9125196 94.091682,33.7604048 97.0538746,39.982916 L102.072881,33.7275879 L98.8143631,20.097716 L90.2241104,12.3939444 L79.7082739,5.43093535 L69.7850875,11.8013873 L65.3417986,14.7644375 L69.1400512,23.1756254 Z" id="Shape" fill="#000000" fill-rule="nonzero"></path>
                    <path d="M89.2938613,23.864516 C89.6031506,23.7634187 89.9439245,23.7012254 90.318564,23.6935505 C91.2310866,23.6752894 92.0756131,24.1469003 92.4933785,24.9583251 C93.076504,26.0907734 93.4670181,28.237635 92.1404342,32.1039444 C90.3537527,37.311513 87.4026723,31.6413317 86.4589298,28.5179021 C85.9297778,26.7651082 87.5540097,24.4337837 89.2938613,23.864516 Z" id="Shape" fill="#80574C" fill-rule="nonzero"></path>
                    <path d="M84.1565897,49.932 C75.3364205,54.8706816 67.8714095,59.4676967 65.6992407,69.960377 C63.7445534,79.4018574 65.6442089,93.3241704 63.6913737,103.391819 C50.5739616,99.7494054 38.1256621,95.9770477 27.9529806,91.8143275 C24.7404991,92.8549414 23.0017058,96.6151251 23.6697602,100.660075 C35.9823322,111.154079 47.2276047,117.685704 66.6779072,126.202224 C68.9273322,127.18726 71.3997946,127.106012 74.6265632,124.182395 C79.7786511,119.514453 85.0545605,108.626647 87.0849165,101.928819 C90.5966334,90.3431239 81.321129,51.5196508 84.1565897,49.932 Z" id="Shape" fill="#ABC3D6" fill-rule="nonzero"></path>
                    <path d="M53.7306175,119.976007 C57.5574443,122.021772 61.8152655,124.073094 66.6776427,126.201959 C68.9270676,127.186996 71.39953,127.105747 74.6262986,124.182131 C79.7783865,119.514189 88.7170857,104.918864 81.4891347,93.4713172 C80.953633,102.056911 80.0040698,110.651239 76.4068949,113.668278 C63.7318538,124.299901 44.7879496,115.195323 53.7306175,119.976007 Z" id="Shape" fill="#A0B9CA" fill-rule="nonzero"></path>
                    <path d="M87.9185954,98.8390006 C83.8533856,89.3848169 78.2568101,71.8878417 80.4310954,84.7293136 C83.8742871,105.065217 73.1359421,125.278851 73.1250945,125.295524 C73.6955203,124.919717 74.220439,124.468485 74.683447,123.946854 C77.6546352,120.597676 83.1707796,114.803637 86.8478564,101.700953 C87.1970967,100.455498 87.6616921,100.097953 87.9185954,98.8390006 Z" id="Shape" fill="#A0B9CA" fill-rule="nonzero"></path>
                    <path d="M89.2943905,141.192145 C89.2943905,141.192145 41.2241113,134.956931 21.6491935,156.20959 C17.7969673,160.391895 16.131197,166.136973 17.0881683,171.742844 C18.875379,182.213028 23.0538273,200.827367 39.9509717,247.450151 C39.9509717,247.450151 52.6506184,252.47855 58.4712898,246.656193 C58.4712898,246.656193 54.1057862,197.033837 48.4174028,174.670695 C48.4174028,174.670695 63.3659452,178.77281 69.9803445,175.596979 C76.5947438,172.421148 108.873012,142.250755 108.873012,142.250755 L89.2943905,141.192145 Z" id="Shape" fill="#6C788A" fill-rule="nonzero"></path>
                    <path d="M95.7765018,140.530514 C95.7765018,140.530514 35.4531802,134.178852 19.04947,160.114804 C51.2316974,147.383427 51.7246025,169.245317 52.4487469,175.554105 C57.9106533,176.584398 65.8786232,177.566523 69.9803445,175.596979 C76.5947438,172.421148 108.873012,142.250755 108.873012,142.250755 L95.7765018,140.530514 Z" id="Shape" fill="#697687" fill-rule="nonzero"></path>
                    <path d="M142.49321,143.625096 C142.49321,143.625096 148.424474,162.598568 136.91489,172.593702 C125.405307,182.588835 86.6332853,183.885633 77.5207597,182.345619 C77.5207597,182.345619 88.3683746,197.960121 84.664311,259.888822 C84.664311,259.888822 75.139576,264.652568 66.1439929,259.624169 C66.1439929,259.624169 60.0182655,236.911421 49.7402827,196.372205 C48.8809399,192.983329 45.8293207,180.883414 47.3120044,171.146052 C48.1139342,165.88026 51.2988997,161.280069 55.8623061,158.535092 C65.1341064,152.95754 85.5027522,142.918738 114.032244,143.971262 C140.940678,129.479681 142.49321,143.625096 142.49321,143.625096 Z" id="Shape" fill="#758094" fill-rule="nonzero"></path>
                    <path d="M142.077297,141.059819 C142.077297,141.059819 149.356576,162.191797 136.785777,173.347432 C125.38414,183.465629 90.4849823,183.668882 79.1082155,182.610272 C79.1082155,182.610272 144.088868,173.076428 129.797797,144.736637 C145.133678,143.756364 142.077297,141.059819 142.077297,141.059819 Z" id="Shape" fill="#707E91" fill-rule="nonzero"></path>
                    <path d="M137.711793,116.050151 C137.644591,115.415514 137.577918,114.77479 137.511509,114.131155 C139.430214,111.4272 140.68986,107.400511 141.521158,103.334389 C143.314983,94.5608918 142.450084,83.3364471 140.655995,74.5629498 C137.902288,61.0955746 133.428044,49.9272363 122.987611,46.178168 C122.97597,46.1985462 122.964858,46.2181305 122.953216,46.2382441 C122.541801,46.0683372 122.112659,45.9375988 121.669494,45.8597909 C109.899567,43.7968242 99.1620159,43.767977 99.1620159,43.767977 C93.9398154,56.7446864 84.1706122,49.9269716 84.1706122,49.9269716 C84.1706122,49.9269716 73.1248299,55.3113281 73.1248299,66.2229535 C79.8111939,79.7509341 84.295492,100.413419 86.9830548,116.328301 C86.8489148,116.370116 86.7142456,116.41299 86.5801056,116.45454 C84.9738648,118.596903 84.5555702,121.370726 86.3123547,125.023461 C86.9674448,125.03537 87.6508445,125.040399 88.3575269,125.038546 C89.6153211,133.593176 90.1939488,139.349634 90.1939488,139.349634 C94.4165813,151.579494 132.851533,145.464431 140.225265,144.23512 C141.461364,144.028956 142.536865,143.502033 142.952514,143.278931 C143.065753,143.218325 143.135865,143.101613 143.134542,142.973257 C143.055699,134.510197 138.105482,122.219996 137.711793,116.050151 Z" id="Shape" fill="#ABC3D6" fill-rule="nonzero"></path>
                    <path d="M137.050353,111.154079 L95.5119258,124.916012 C112.912558,126.522718 132.477422,126.164908 138.902385,122.534139 C138.373233,119.622961 137.187668,113.71221 137.050353,111.154079 Z" id="Shape" fill="#A0B9CA" fill-rule="nonzero"></path>
                    <path d="M67.4658145,122.449979 C67.4658145,122.449979 60.7328852,124.173926 56.5107818,121.400632 C55.5471961,120.767583 50.3564801,120.333288 47.6276436,121.276245 C44.8985424,122.219202 43.6463043,121.548837 43.9598269,120.727091 C44.2733494,119.905345 48.3144828,117.968353 48.3144828,117.968353 C48.3144828,117.968353 48.3671334,116.512234 49.3587641,116.547963 C49.6897487,116.559872 50.0847606,116.550874 50.5329523,116.528643 C50.817636,114.419891 53.0310786,114.701217 54.6116555,114.133537 C54.6116555,114.133537 55.4564466,113.325553 57.4860088,112.977535 C57.735504,112.934661 57.9892323,112.914812 58.2419024,112.895492 C59.4123865,112.806569 62.2068379,112.077716 66.6382208,114.694071 C67.4306259,115.161977 73.1243008,115.04553 82.0846952,113.465819 C84.6711899,113.009822 83.8398922,120.67469 83.8398922,120.67469 L67.4658145,122.449979 Z" id="Shape" fill="#80574C" fill-rule="nonzero"></path>
                    <path d="M26.7772049,275.367821 C26.3861617,275.903743 26.1406352,277.828296 26.1872005,278.75061 C26.1932858,278.869175 26.272394,278.967361 26.3739912,278.980064 C28.0066895,279.186228 40.2396241,281.307948 61.5186758,275.518938 C61.7803414,275.447746 61.9904148,275.224909 62.0705813,274.926645 C62.2295914,274.334353 62.3084351,273.195818 61.5361378,271.417617 C60.3870844,268.77215 29.9380941,275.447746 26.7338145,276.158338 C26.5557549,276.198036 26.8933538,275.208765 26.7772049,275.367821 Z" id="Shape" fill="#E0E0E0" fill-rule="nonzero"></path>
                    <path d="M44.7133392,260.682779 C44.7133392,260.682779 50.4877098,270.198627 57.6304673,263.897779 C57.9450481,263.620423 58.3331811,263.446811 58.7340137,263.484656 C59.1684474,263.525677 59.6814602,263.777097 59.9963057,264.618163 C60.6259965,266.30056 61.5361378,271.417617 61.5361378,271.417617 C61.5361378,271.417617 36.4432235,277.811094 26.4615658,276.218944 C26.4615658,276.218944 25.5720614,273.935521 31.7901259,272.09698 C39.4858472,269.821497 44.7133392,260.682779 44.7133392,260.682779 Z" id="Shape" fill="#F5F5F5" fill-rule="nonzero"></path>
                    <path d="M47.5813428,282.822025 C47.1024602,283.333599 46.5968556,285.320081 46.5270075,286.293473 C46.5180119,286.418654 46.5886537,286.53166 46.6934258,286.558126 C48.3790393,286.984746 60.9339629,290.786215 83.9938754,287.457944 C84.2775009,287.416923 84.5264669,287.210494 84.6489655,286.907996 C84.8921109,286.307235 85.1212337,285.123709 84.5404894,283.159457 C83.6761197,280.237164 50.8858966,283.313485 47.4339739,283.645624 C47.2421564,283.663885 47.7234201,282.670115 47.5813428,282.822025 Z" id="Shape" fill="#E8E8E8" fill-rule="nonzero"></path>
                    <path d="M69.1585716,270.242824 C69.1585716,270.242824 73.111072,280.45709 81.4132014,274.770236 C81.7788454,274.519874 82.2082522,274.387813 82.6236365,274.479118 C83.0739448,274.578098 83.5795495,274.907855 83.8015287,275.830698 C84.2452226,277.676121 84.5404894,283.159722 84.5404894,283.159722 C84.5404894,283.159722 57.4031966,286.630376 47.1408238,283.674207 C47.1408238,283.674207 46.5021374,281.165036 53.2594077,280.03841 C61.6226542,278.643691 69.1585716,270.242824 69.1585716,270.242824 Z" id="Shape" fill="#F5F5F5" fill-rule="nonzero"></path>
                    <path d="M119.762959,75.1602707 C126.514144,66.8462103 131.821803,32.5215662 142.274141,80.3842477 C143.885409,87.7624967 145.028642,95.634852 144.778617,102.396725 C144.51801,109.440189 140.260718,115.676726 133.799244,118.487601 C112.295038,127.842276 83.5464775,125.151818 71.4357769,124.122054 C68.6706935,120.964749 71.0534647,116.069206 72.2903573,114.28386 C78.9243352,112.808422 97.2393423,108.419953 121.649386,100.002149 C121.649386,100.002149 120.363018,85.7783964 118.328428,76.9517039 C118.232123,76.5335529 118.671054,76.7820616 118.287948,76.9768459 L119.762959,75.1602707 Z" id="Shape" fill="#ABC3D6" fill-rule="nonzero"></path>
                    <path d="M88.902818,197.014253 L80.3157403,285.830066 C80.1749859,287.285126 80.6901153,288.570279 81.4454797,288.647822 C82.0997761,288.715044 82.7207359,287.845396 82.9048807,286.603381 L96.3247032,196.158366 L88.902818,197.014253 Z" id="Shape" stroke="#FFE9E4" stroke-width="3"></path>
                </g>
                <g id="_x33_" transform="translate(157.422703, 21.966163)" fill-rule="nonzero">
                    <polygon id="Shape" fill="#8D6151" points="31.5281957 329.057623 31.5281957 337.242004 40.9066201 337.242004 41.7593485 326.056727"></polygon>
                    <path d="M52.9048759,149.277281 C52.9048759,149.277281 53.6427783,181.749092 55.6456184,221.025651 C56.661061,240.940492 53.6581237,251.748109 52.3452977,260.855598 C46.631515,300.492613 41.8006223,332.331111 41.8006223,332.331111 C38.6804779,333.573654 35.2812058,333.741709 32.0692535,332.812249 L30.865962,332.463966 C30.865962,332.463966 28.5580658,277.394266 24.2721996,244.190425 C19.9863335,210.986585 11.039697,192.395271 22.4500649,152.354926 C33.8604329,112.31458 52.9048759,149.277281 52.9048759,149.277281 Z" id="Shape" fill="#5B5968"></path>
                    <path d="M39.9057292,319.236631 C39.9057292,319.236631 41.8553896,279.388688 52.6852778,258.664274 L50.3519823,276.028659 L39.9057292,319.236631 Z" id="Shape" fill="#555463"></path>
                    <polygon id="Shape" fill="#8D6151" points="49.6254567 324.965565 44.2476855 334.786557 36.6056731 331.240213 43.1155649 312.143677"></polygon>
                    <path d="M72.992542,138.535563 C72.992542,138.535563 89.8351837,189.373204 91.9118405,231.252355 C92.0822275,234.686487 91.6880093,238.125118 90.7355358,241.428776 C83.0728865,268.014185 49.6238693,326.056727 49.6238693,326.056727 L49.0174611,325.955895 C45.2493701,325.329198 41.9426996,322.901804 40.0142054,319.346991 C40.0142054,319.346991 47.7048997,263.018868 62.8918251,238.442966 C62.8918251,238.442966 44.9207668,199.072985 41.6066882,177.428375 C37.4578723,150.332451 51.6454943,142.654615 51.7330689,145.45014 C62.3531484,113.972099 65.7870799,115.127837 72.992542,138.535563 Z" id="Shape" fill="#5B5968"></path>
                    <path d="M30.865962,332.464495 C30.865962,332.464495 28.5580658,277.394795 24.2721996,244.190955 C19.9863335,210.987114 11.039697,192.395801 22.4500649,152.355455 C28.2548617,131.985941 44.5149072,123.64515 52.8027496,128.639938 C52.8027496,128.639938 39.2982628,133.479905 29.9783096,162.633502 C26.2713357,174.229519 24.0502204,192.329108 24.6629784,204.579876 C25.0788918,212.892613 25.9263286,223.195802 27.2566166,232.917549 C31.4054324,263.231913 32.7158772,293.921554 31.2548887,324.525448 C31.017564,329.498799 30.865962,332.464495 30.865962,332.464495 Z" id="Shape" fill="#555463"></path>
                    <path d="M76.7921175,69.0489136 C76.7921175,69.0489136 72.01414,80.3067045 76.7463458,92.2928193 C78.8923216,97.7285184 88.3752535,108.743888 93.2561511,112.105769 C110.745152,124.15196 133.927299,136.220382 133.927299,136.220382 L143.196718,130.827821 C143.196718,130.827821 124.411559,114.807607 111.774352,101.94364 C107.968427,98.0691263 104.626039,93.7674634 101.788197,89.1363082 C97.8812036,82.7602985 91.9007284,73.0033523 89.0160565,68.3134441 C88.810481,67.9791879 74.664133,61.9930115 87.4611436,67.1378574 L89.0160565,68.3134441 L76.7921175,69.0489136 Z" id="Shape" fill="#8D6151"></path>
                    <path d="M57.2121727,41.215403 C57.2121727,41.215403 58.769996,41.8309849 66.7591321,45.8237982 C68.669106,46.7784 76.0409863,51.2782876 79.2254227,54.2275758 C86.3282292,60.8060447 92.2338295,72.3904169 92.2338295,72.3904169 C88.8353511,79.7263215 84.0068397,86.3098187 78.0319205,91.7547807 L77.8559775,91.9151601 C77.8559775,91.9151601 73.7066325,118.903106 77.5993388,152.089744 C77.5993388,152.089744 31.2570053,165.101917 19.603492,151.81874 C19.603492,151.81874 18.9394064,142.64694 16.5727743,133.625728 C13.0131692,120.055932 11.2021466,90.2819891 0.0907495583,89.739716 C-0.0227535336,84.952945 0.889504417,76.4414538 3.0082288,67.6547239 C5.20844258,58.5302973 11.2870755,50.8066767 19.6532323,46.5560918 C24.9772946,43.8513426 30.0865212,41.7621752 31.3601899,41.2151384 C31.3607191,41.215403 54.5486864,52.2868785 57.2121727,41.215403 Z" id="Shape" fill="#FFFFFF"></path>
                    <path d="M68.305314,23.7530973 C68.305314,23.7530973 76.8696383,18.5275323 73.1325027,9.47270937 C71.7765508,6.18704773 69.1318494,3.43095589 65.7833759,1.76496798 C56.5285084,-2.83972205 48.6814496,2.88974139 47.4757769,4.50570997 C47.4757769,4.50570997 37.8986559,2.96622598 34.9348759,9.20011722 C31.9710958,15.4342731 35.8754435,26.3252556 35.8754435,26.3252556 L68.305314,23.7530973 Z" id="Shape" fill="#211411"></path>
                    <path d="M37.761341,31.4563396 C37.761341,31.4563396 33.5119863,38.9534175 27.362447,46.5028967 C21.2330155,54.0274985 46.9024408,66.8840556 46.9024408,66.8840556 C46.9024408,66.8840556 47.2016762,54.2709789 50.0617425,48.648435 C52.9218087,43.0261559 37.761341,31.4563396 37.761341,31.4563396 Z" id="Shape" fill="#8D6151"></path>
                    <path d="M67.8121444,19.4879565 C67.8121444,19.4879565 70.032466,26.8095698 63.205083,43.1084628 C58.5763264,54.1585015 52.0079633,45.4363468 52.0079633,45.4363468 L39.258841,37.1643662 C39.258841,37.1643662 34.9036559,31.5738453 37.3784996,24.8238816 C39.6287182,18.6868532 38.9913547,16.7662695 38.9913547,16.7662695 C38.9913547,16.7662695 49.1545115,9.62276737 57.0822659,9.76118066 C62.9754311,9.86413051 67.0739775,16.5857764 67.8121444,19.4879565 Z" id="Shape" fill="#8D6151"></path>
                    <path d="M39.5646908,41.1195988 C39.5646908,41.1195988 41.4087853,50.9749958 47.7517297,57.2417039 C48.2187063,54.1132459 48.93703,50.8892483 50.0363432,48.6997776 L39.5646908,41.1195988 Z" id="Shape" fill="#805547"></path>
                    <path d="M31.4078136,40.8451541 C32.7121731,42.8533378 36.4601564,52.9257498 49.2529337,51.5926949 C62.5732756,50.2048568 50.4522566,65.8553511 50.4522566,65.8553511 L44.0558679,67.4549112 L33.3953083,63.9892858 L26.7324916,54.3919251 L25.3998224,49.8597498 L26.465799,45.8608495 L28.3313242,43.1950042 C28.3313242,43.1950042 30.0637677,41.4623239 31.4078136,40.8451541 Z" id="Shape" fill="#FFFFFF"></path>
                    <path d="M65.6463255,36.6538514 C65.6463255,36.6538514 63.584485,33.6426344 60.356129,34.6184085 C57.1275084,35.5939178 54.2034148,38.0925027 51.6690415,37.4107577 C49.9477102,36.9476157 46.8598441,34.0073257 46.4127107,28.3744604 C46.1089775,24.5491722 47.488212,20.8742066 50.0519532,18.0045789 C50.413364,17.6001897 50.7350883,17.1664242 51.054167,16.7316 C53.5480601,13.3331964 56.7451961,13.2694151 58.3437641,13.4821958 C62.0163432,13.9710091 63.718625,18.715171 68.305314,23.7533619 L71.0820389,15.4689426 L64.7711082,7.81519033 L53.0779086,5.43728701 L44.2283715,8.05126042 L38.6892089,16.6466465 C38.6892089,16.6466465 41.5937239,17.9992858 41.5590645,23.2592556 C41.5397504,26.2043094 40.3578896,29.2928048 39.2966754,32.0258719 C38.649258,33.6931831 37.7922964,35.6172073 38.4714629,38.6239251 C39.0561758,41.2124918 44.3884399,50.6089813 51.6470817,54.824632 C54.5637672,56.5186731 57.8632942,53.880881 59.6430967,51.4320508 C63.7683653,45.7571057 65.6463255,36.6538514 65.6463255,36.6538514 Z" id="Shape" fill="#211411"></path>
                    <path d="M34.9330239,23.1126381 C34.9330239,23.1126381 36.1461047,29.3536749 36.9014691,31.7643952 C36.9014691,31.7643952 36.5670451,28.9487565 37.9875534,25.6128109 C39.4080618,22.2768653 34.9330239,23.1126381 34.9330239,23.1126381 Z" id="Shape" fill="#211411"></path>
                    <path d="M40.2081396,19.7332894 C40.3525981,18.1350526 39.2800071,16.5704266 37.6597438,16.1866804 C36.7331988,15.9672834 35.6624598,16.1250163 34.6086537,17.1915662 C32.3526144,19.4749885 34.4446166,25.1758695 37.5295724,28.3903396 C39.077871,30.0039263 39.9030835,23.1094622 40.2081396,19.7332894 Z" id="Shape" fill="#8D6151"></path>
                    <path d="M27.6421038,102.434306 C27.6421038,102.434306 24.2904554,130.51659 31.799386,157.240412 C31.799386,157.240412 26.6502085,156.698139 22.0428825,153.987303 C18.461053,151.879874 14.4183322,103.023687 27.6421038,102.434306 Z" id="Shape" fill="#E8E8E8"></path>
                    <path d="M25.6905914,186.936547 C25.6905914,186.936547 29.4959876,186.961954 30.3389267,187.390691 C31.1818657,187.819428 32.8590128,189.945382 33.2762491,190.794123 C33.6934854,191.642864 32.4163772,192.90314 32.4163772,192.90314 C32.4163772,192.90314 20.571311,193.669838 19.3114002,192.39236 C18.1234541,191.188191 25.6905914,186.936547 25.6905914,186.936547 Z" id="Shape" fill="#805547"></path>
                    <path d="M35.8103578,191.233976 C33.7019519,190.373855 31.1649329,190.356917 28.219144,188.22223 C26.4300813,186.925961 25.5321104,185.267648 25.1016453,184.162724 C24.8624686,183.548465 24.7362659,182.896097 24.7071625,182.237641 C24.4584611,176.600541 23.266811,148.947259 23.0792266,132.167757 C22.9982663,124.914689 23.8330035,117.671413 25.5622721,110.611011 L31.9496652,84.5334707 C31.9496652,84.5334707 13.2780097,62.8856846 6.99247836,74.5542163 C4.26417094,79.6191372 0.836853799,104.398028 0.084135159,114.170059 C0.0219598057,114.979102 -0.00555609541,115.78841 0.0161391343,116.59957 C0.55957818,136.879367 14.2294249,176.95994 16.4941952,184.864847 C16.7243763,185.668068 16.9008485,186.484785 16.996625,187.315001 C17.1643662,188.768473 17.1215049,190.252909 16.3621718,190.680852 C14.9308158,191.487248 13.7320221,191.755606 13.641008,192.210808 C13.3700822,193.566359 16.345239,193.218605 18.4621113,192.809982 C20.5789837,192.401358 21.4303891,191.560822 23.9644978,192.000939 C26.4366957,192.430205 28.1011431,193.256451 34.8565614,192.94866 C35.30978,192.928017 35.7574426,192.807865 36.1445172,192.571001 C36.6707588,192.249183 37.0684165,191.747137 35.8103578,191.233976 Z" id="Shape" fill="#8D6151"></path>
                    <path d="M12.2665358,52.6499819 C12.2665358,52.6499819 2.11819523,59.9300447 0.0912787102,89.8034973 C0.0912787102,89.8034973 16.8426418,101.585036 30.8059033,99.4357921 L35.9497893,77.5598755 L12.2665358,52.6499819 Z" id="Shape" fill="#FFFFFF"></path>
                    <path d="M31.3459028,343.794801 L31.4869218,341.54896 L31.3543693,334.625384 C31.3543693,334.625384 32.997386,335.868457 35.4330724,335.320361 C35.4063503,335.294955 35.3875654,335.277223 35.3875654,335.277223 C35.3875654,335.277223 39.1130596,327.285509 42.3670795,331.437379 C42.9951829,332.238747 43.6039722,333.049642 44.2749368,333.813694 C45.6978264,335.434427 48.0200097,337.916074 50.6998997,340.146301 C53.4795349,342.36356 55.9321542,344.330193 55.9533202,345.40336 C55.9575534,345.617728 55.9464413,345.833155 55.924746,346.048053 C55.9313604,346.031645 55.9392977,346.017089 55.9459121,346.00068 C55.9459121,346.00068 55.9258043,346.152856 55.8768578,346.404276 C55.8445795,346.596149 55.8022473,346.787228 55.7490676,346.97619 C55.3921546,348.402667 54.4682553,350.949948 52.3410645,351.51207 C49.3971277,352.289884 44.6993167,352.565123 31.931674,344.919045 C31.5456577,344.687474 31.3173286,344.24921 31.3459028,343.794801 Z" id="Shape" fill="#E9E9EB"></path>
                    <path d="M32.2406988,332.162792 L33.8876842,330.615103 L38.5497774,325.453584 C38.5497774,325.453584 38.8984885,327.493791 41.0590159,328.767828 C41.0568993,328.730777 41.0555764,328.705106 41.0555764,328.705106 C41.0555764,328.705106 49.2772747,325.41521 48.8063295,330.693705 C48.7153154,331.712353 48.6039289,332.725178 48.5697986,333.746208 C48.4975693,335.91186 48.4922778,339.326407 48.9219492,342.802883 C49.4333746,346.338377 49.8775976,349.465512 49.1553052,350.265821 C49.0111113,350.425671 48.8547469,350.575729 48.691239,350.718377 C48.7073781,350.710967 48.7232527,350.705674 48.7391272,350.698263 C48.7391272,350.698263 48.6198034,350.79592 48.411053,350.946243 C48.2554823,351.064543 48.0932973,351.175432 47.9242332,351.277323 C46.6823136,352.076574 44.2545645,353.306415 42.3104602,352.25495 C39.6199872,350.799625 35.990534,347.770147 31.8964854,333.389192 C31.773193,332.953838 31.9075976,332.475876 32.2406988,332.162792 Z" id="Shape" fill="#F5F5F5"></path>
                </g>
                <g id="стол" transform="translate(103.978357, 211.192749)">
                    <path d="M319.343198,0 C319.343198,0 311.283685,26.1394695 326.84181,72.7855432 C329.228814,79.9420133 329.298133,87.7074489 326.839429,94.839571 C319.704873,115.535137 296.85424,118.035045 296.85424,118.035045" id="Shape" stroke="#FFFFFF" stroke-width="2"></path>
                    <path d="M240.36727,1.72024169 C240.36727,1.72024169 240.660156,1.65963625 241.192218,1.58421027 C251.709378,0.089452568 261.86592,5.97664894 265.955471,15.7833498 C271.502835,29.0850526 274.238551,51.478365 266.824867,80.0574018 C255.977253,121.872508 283.75773,118.167372 283.75773,118.167372" id="Shape" stroke="#FFFFFF" stroke-width="2"></path>
                    <rect id="Rectangle-path" fill="#FFE9E4" fill-rule="nonzero" x="174.947157" y="47.1711444" width="69.3781696" height="13.8254502"></rect>
                    <path d="M181.904447,59.5936713 L173.073959,151.072949 C172.929236,152.571676 173.458917,153.895204 174.235712,153.975393 C174.908529,154.044732 175.546951,153.148883 175.736387,151.869553 L189.53667,58.7123782 L181.904447,59.5936713 Z" id="Shape" stroke="#FFE9E4" stroke-width="3"></path>
                    <path d="M235.58453,59.5936713 L244.415018,151.072949 C244.559741,152.571676 244.03006,153.895204 243.253265,153.975393 C242.580448,154.044732 241.942027,153.148883 241.75259,151.869553 L227.952307,58.7123782 L235.58453,59.5936713 Z" id="Shape" stroke="#FFE9E4" stroke-width="3"></path>
                    <path d="M184.839124,90.4233136 L230.526896,77.1613088" id="Shape" stroke="#FFE9E4" stroke-width="3"></path>
                    <path d="M186.77238,77.1613088 L232.756478,90.3547686" id="Shape" stroke="#FFE9E4" stroke-width="3"></path>
                    <rect id="Rectangle-path" fill="#F7DFDA" fill-rule="nonzero" x="174.405306" y="38.7673668" width="69.3781696" height="13.8254502"></rect>
                    <polyline id="Shape" fill="#F0AF9E" fill-rule="nonzero" points="171.107102 136.354561 173.90949 147.98657 184.974587 148.015418 183.077577 125.244181 171.107102 136.354561"></polyline>
                    <polyline id="Shape" fill="#F0AF9E" fill-rule="nonzero" points="245.680485 136.383408 242.877832 148.015418 231.812735 148.044265 233.71001 125.273028 245.680485 136.383408"></polyline>
                    <path d="M179.724076,12.0054344 C179.724076,12.0054344 162.329529,16.8189353 155.169839,24.641536 C150.181259,30.0917909 147.314578,37.2831952 146.952638,44.825264 C146.213942,60.2156048 151.366295,84.6612979 169.939528,135.946202 L185.204239,136.211384 C185.204239,136.211384 183.194784,77.3590042 178.733504,50.2127964 C178.733504,50.2127964 192.888848,51.6228653 202.543225,47.6869523 C204.083851,47.0589317 205.711522,46.7064145 207.361682,46.6124628 C209.607139,46.484371 212.564833,46.5280387 214.791769,47.3262308 C218.90619,48.8008749 230.158606,52.0627178 240.076766,50.1225498 C240.076766,50.1225498 236.728028,56.1526586 231.680447,137.73393 L246.533742,137.8517 C246.533742,137.8517 270.700905,83.7220459 272.135436,50.2887517 C272.565108,40.2753571 270.347961,31.1832181 262.379991,23.3733208 C259.453252,20.5047517 246.282131,13.3990949 238.591701,11.8961329 L179.724076,12.0054344 Z" id="Shape" fill="#677B8F" fill-rule="nonzero"></path>
                    <path d="M240.289485,12.2939057 L174.576486,13.6756568 C171.984171,14.6022054 168.710043,15.8952979 165.469252,17.5088846 L165.467665,17.5117958 C165.467665,17.5117958 254.352756,17.8936894 254.215864,18.1284363 C249.794112,15.7751456 244.493597,13.4181498 240.289485,12.2939057 Z" id="Shape" fill="#556D82" fill-rule="nonzero"></path>
                    <path d="M0.743723057,15.0240616 L402.211303,15.0240616 C402.572184,15.0240616 402.864805,14.7313559 402.864805,14.3703698 L402.864805,4.51073837 C402.864805,4.14975227 402.572184,3.85704653 402.211303,3.85704653 L0.743723057,3.85704653 C0.382841431,3.85704653 0.0902204064,4.14975227 0.0902204064,4.51073837 L0.0902204064,14.3703698 C0.0902204064,14.7313559 0.382841431,15.0240616 0.743723057,15.0240616 Z" id="Shape" fill="#FFE9E4" fill-rule="nonzero"></path>
                    <rect id="Rectangle-path" fill="#FFFFFF" fill-rule="nonzero" x="276.84383" y="111.794802" width="12.6996466" height="12.7033233"></rect>
                    <ellipse id="Oval" fill="#E8EAF4" fill-rule="nonzero" cx="282.859494" cy="118.146464" rx="2.84075221" ry="2.84157462"></ellipse>
                    <ellipse id="Oval" fill="#FFFFFF" fill-rule="nonzero" cx="283.862237" cy="117.812208" rx="3.17491166" ry="3.17583082"></ellipse>
                </g>
                <g id="_x31_" transform="translate(23.282686, 111.154079)">
                    <path d="M24.4820084,174.192468 L15.8949307,264.171694 C15.7541762,265.645809 16.2693057,266.947635 17.0246701,267.026502 C17.6789664,267.094782 18.2999262,266.213489 18.4840711,264.955331 L31.9038936,173.325731 L24.4820084,174.192468 Z" id="Shape" stroke="#FFE9E4" stroke-width="3"></path>
                    <path d="M76.6823185,174.192468 L85.2693962,264.171694 C85.4101506,265.645809 84.8950212,266.947635 84.1396568,267.026502 C83.4853604,267.094782 82.8644006,266.213489 82.6802557,264.955331 L69.2604333,173.325731 L76.6823185,174.192468 Z" id="Shape" stroke="#FFE9E4" stroke-width="3"></path>
                    <path d="M27.3357248,204.113028 L71.7638511,191.237416" id="Shape" stroke="#FFE9E4" stroke-width="3"></path>
                    <path d="M29.2158017,191.237416 L73.9320512,204.046601" id="Shape" stroke="#FFE9E4" stroke-width="3"></path>
                    <path d="M116.141973,59.162023 C116.141973,59.162023 120.594257,52.1614332 121.226064,50.5846332 C121.858136,49.0075686 122.962212,48.5351637 124.082427,47.7946659 C125.202641,47.054168 128.547146,45.1005027 129.619473,45.1645486 C130.691799,45.2283299 129.523167,46.6354876 128.134937,47.3601063 C126.746707,48.0847251 125.074851,48.5846538 124.568982,50.9183601 C124.568982,50.9183601 127.280886,51.7168169 128.680757,54.3945716 C129.022325,55.0479988 129.119953,55.8009353 128.968351,56.5226429 C128.613026,58.2143021 127.604991,61.3117958 125.082259,60.3677801 C125.082259,60.3677801 124.339595,61.7603819 122.225897,63.1577474 C121.105682,63.8982453 119.685439,65.1593148 118.297208,65.8836689 C118.297208,65.8836689 115.423384,69.9283541 114.248138,75.5127879 C113.750206,77.8785172 108.077697,73.1613498 108.077697,73.1613498 C108.077697,73.1613498 113.599927,63.4507178 116.141973,59.162023 Z" id="Shape" fill="#F0AF9E" fill-rule="nonzero"></path>
                    <path d="M127.9709,57.0410973 C127.9709,57.0410973 127.13484,57.5293813 126.046374,57.7336931 C124.958173,57.9380048 123.569943,58.6626236 122.937871,60.2394236 C122.305799,61.8164882 119.872494,62.9711674 119.872494,62.9711674 C119.872494,62.9711674 122.93258,62.052823 124.278213,60.3193486 C126.156173,57.9001595 127.9709,57.0410973 127.9709,57.0410973 Z" id="Shape" fill="#DB9A88" fill-rule="nonzero"></path>
                    <path d="M127.514506,55.6683444 C127.514506,55.6683444 125.117712,55.256545 124.013637,55.7289498 C122.909561,56.2013547 119.896835,57.0982622 119.896835,57.0982622 C119.896835,57.0982622 124.013637,55.7289498 123.589257,53.8200109 C123.589257,53.8200109 125.417742,54.7362381 126.506207,54.5319263 C126.506207,54.5319263 125.922288,55.3044471 127.514506,55.6683444 Z" id="Shape" fill="#DB9A88" fill-rule="nonzero"></path>
                    <path d="M173.602847,42.0059202 C173.602847,42.0059202 166.256895,38.7729245 159.204887,38.7729245 C159.204887,38.7729245 142.456434,49.0599698 135.404426,66.6950937 C131.878422,74.0431722 130.996855,78.7457837 130.996855,78.7457837 L134.816803,77.8639613 C134.816803,77.8639613 136.873617,53.7625813 173.602847,42.0059202 Z" id="Shape" fill="#FFFFFF" fill-rule="nonzero"></path>
                    <path d="M38.1714337,114.523106 L9.21491652,114.523106 C4.14140769,114.523106 0.0285742049,119.21566 0.0285742049,125.004141 L0.0285742049,157.738488 C0.0285742049,170.013339 8.75032111,179.964011 19.5087739,179.964011 L93.9366405,179.964011 C96.9662999,179.964011 99.4220941,177.161869 99.4220941,173.705507 L99.4220941,173.167468 C99.4220941,170.46563 97.5060349,168.272984 95.1380799,168.264779 L51.507121,168.113927 L38.1714337,114.523106 Z" id="Shape" fill="#FFE9E4" fill-rule="nonzero"></path>
                    <path d="M47.1344739,114.523106 L22.8741802,114.523106 C19.8191215,114.523106 17.3389863,115.529844 15.4985958,118.508244 C14.2426537,120.540776 13.635981,122.943027 13.635981,125.368039 L13.635981,149.276487 C13.635981,159.267651 22.4847244,167.789993 31.4985632,167.789993 L101.197134,167.789993 L101.197134,158.288436 L58.3075172,158.144465 L47.1344739,114.523106 Z" id="Shape" fill="#F7DFDA" fill-rule="nonzero"></path>
                    <path d="M163.77967,167.793698 C163.77967,167.793698 169.805123,173.117184 173.904463,176.519028 C193.221949,192.548505 178.438502,189.309952 178.438502,189.309952 L155.519344,175.633501 L163.77967,167.793698 Z" id="Shape" fill="#F0AF9E" fill-rule="nonzero"></path>
                    <path d="M133.118225,232.761934 C133.118225,232.761934 134.455657,243.481686 136.866738,256.304632 C138.01976,262.437161 129.748321,259.339668 129.748321,259.339668 L122.62673,230.701613 L133.118225,232.761934 Z" id="Shape" fill="#F0AF9E" fill-rule="nonzero"></path>
                    <path d="M113.92218,140.056256 C113.92218,140.056256 127.703943,141.780997 129.384529,159.458201 C130.980451,176.244054 131.063528,202.72175 134.76283,239.221309 C134.76283,239.221309 129.720805,243.963883 125.014792,241.808288 C125.014792,241.808288 110.84913,195.321005 109.840567,171.607606 C109.840567,171.607606 75.1514819,174.047438 49.4058587,169.438778 C44.7593754,168.60724 64.8459832,130.139724 113.92218,140.056256 Z" id="Shape" fill="#6F86AA" fill-rule="nonzero"></path>
                    <path d="M31.5898419,119.449878 L48.8542178,92.3306647 C48.8542178,92.3306647 75.3544117,100.361018 71.9387359,107.539189 C69.5747496,111.482248 68.6614333,123.913244 68.6614333,123.913244 C71.9469377,122.945144 95.5095446,116.209737 110.843839,117.520296 C115.483708,117.916746 119.846301,120.265008 123.202182,124.046893 C132.479539,134.501993 156.00828,160.593825 168.971444,171.152139 C168.971444,171.152139 168.636756,178.613224 163.953232,180.969426 C163.953232,180.969426 119.458168,162.905565 110.42528,144.841969 C110.42528,144.841969 100.258948,150.881076 83.6613034,161.334852 C71.0878595,169.254051 43.3166427,179.095421 29.6986528,161.469295 C27.0441621,158.033576 25.2580097,153.885941 24.5079368,149.47974 C23.2258017,141.948257 24.5039682,135.386462 26.4012425,130.006075 C27.7103644,126.293529 29.4801131,122.764122 31.5898419,119.449878 Z" id="Shape" fill="#8097BB" fill-rule="nonzero"></path>
                    <path d="M68.3198657,123.944473 C66.5448255,124.55926 64.806826,125.216128 63.0921091,125.920104 C61.3795088,126.628844 59.7039492,127.406657 58.0635782,128.246135 L56.8415018,128.891623 L55.6450892,129.581043 C55.2376422,129.798323 54.8537425,130.051331 54.4664033,130.300104 L53.883807,130.671676 L53.5888048,130.852963 L53.3065022,131.051453 C52.9294814,131.31584 52.5564293,131.58658 52.1735879,131.846998 C51.7915402,132.108475 51.4454748,132.413619 51.0761268,132.694416 L50.5221047,133.118124 C50.3382244,133.260772 50.1763039,133.426445 49.997186,133.575444 C49.6474165,133.882441 49.2944722,134.189438 48.9288282,134.489554 C49.2055746,134.111895 49.4950208,133.740852 49.7876418,133.370074 C49.934746,133.185611 50.0773525,132.995061 50.2379501,132.822508 L50.7263573,132.31014 L51.2240247,131.804124 C51.3920305,131.637393 51.5520989,131.460076 51.7343918,131.310018 C52.0891882,130.997728 52.454303,130.696024 52.8149201,130.387704 C54.3013079,129.216881 55.8863825,128.15483 57.5780813,127.305295 C59.2615782,126.441469 61.0146586,125.720556 62.8106003,125.14626 C64.6060128,124.578845 66.4461387,124.132111 68.3198657,123.944473 Z" id="Shape" fill="#6F86AA" fill-rule="nonzero"></path>
                    <path d="M94.9253609,8.28891843 C94.9253609,8.28891843 83.5544148,-3.29095468 71.5167372,0.939516616 C58.8726515,5.38329789 54.2592403,14.0998949 51.8672089,28.7986985 C51.1195172,33.3935964 49.6016449,38.0710659 45.2287332,46.8480036 C42.6403865,52.0431335 44.6157107,56.3246828 48.4496811,58.5379722 C57.1060777,63.535142 73.7378525,59.2215698 73.7378525,59.2215698 L89.2867178,69.9892242 C89.2867178,69.9892242 92.3624134,57.6834091 99.0260239,37.0026634 C103.535192,23.0088943 105.177151,13.4162973 94.9253609,8.28891843 Z" id="Shape" fill="#A58075" fill-rule="nonzero"></path>
                    <path d="M78.4573587,49.9171795 C78.4573587,49.9171795 88.3011723,52.9731227 91.01678,62.4802369 C93.2675278,70.3597378 98.6542946,79.2875275 98.6542946,83.7016677 C98.6542946,83.7016677 106.291809,74.703745 110.025505,69.2712218 C110.025505,69.2712218 114.777819,70.968968 115.11727,73.3458127 C115.11727,73.3458127 106.416689,105.766282 96.9123264,103.728986 C87.4079638,101.691691 72.5170989,63.6687915 72.5170989,63.6687915 L78.4573587,49.9171795 Z" id="Shape" fill="#C47777" fill-rule="nonzero"></path>
                    <path d="M82.9646749,42.8136399 C82.9646749,42.8136399 78.8640119,48.624881 77.1551157,53.4103287 C75.4464841,58.1960411 59.3851352,51.3592713 59.3851352,51.3592713 C59.3851352,51.3592713 71.6873887,32.5586175 75.1046519,28.4565027 C78.2372314,24.697113 82.9646749,42.8136399 82.9646749,42.8136399 Z" id="Shape" fill="#F0AF9E" fill-rule="nonzero"></path>
                    <path d="M77.3260318,49.4794441 C77.3260318,49.4794441 83.3062425,57.1705124 83.3062425,60.2470985 C83.3062425,64.1628979 75.1046519,54.0941909 75.1046519,54.0941909 L78.1803476,49.9923408" id="Shape" fill="#F0AF9E" fill-rule="nonzero"></path>
                    <path d="M82.8284183,43.0100121 C82.8284183,43.0102767 82.8281537,43.0105414 82.8281537,43.0105414 C82.4611868,43.5427577 81.3941519,45.1198224 80.2313405,47.1070985 C78.5060406,46.2419492 73.6209099,42.687136 72.0294854,36.3190659 C70.2012655,29.0053921 81.4346321,41.5276931 82.8284183,43.0100121 Z" id="Shape" fill="#DB9A88" fill-rule="nonzero"></path>
                    <path d="M94.6552288,12.695913 C94.6552288,12.695913 97.1123458,17.4668048 94.6689867,26.1100931 C94.4467429,26.8961112 94.5250574,27.743264 94.9166299,28.4602079 C95.3539739,29.2613112 96.0482213,30.3220387 97.0337668,31.2417063 C97.5451921,31.7191396 97.6623993,32.4892785 97.280087,33.0749547 C95.9463595,35.1186018 94.7999519,34.5141353 91.6787491,41.9588121 C90.3180349,45.2042465 89.2867178,48.1117196 75.9592323,40.2496858 C75.914519,40.227455 75.8700702,40.2049595 75.8261506,40.182464 C72.4271431,38.444226 70.3798542,34.8558018 70.5655866,31.041629 C70.7679872,26.8910828 71.4765216,20.6923903 73.8934231,20.0929523 C74.276,19.9982066 74.6784201,20.0013825 75.0652301,20.0768085 C75.8383211,20.2271311 76.2653467,19.6758598 77.4972125,21.2780665 C77.4972125,21.2780665 80.6708012,20.4714054 83.5353653,16.5532242 C87.1970967,11.544939 93.0336427,11.9710296 94.6552288,12.695913 Z" id="Shape" fill="#F0AF9E" fill-rule="nonzero"></path>
                    <path d="M95.0960124,12.2200677 C95.0960124,12.2200677 90.4826011,23.3296532 73.3960203,21.9621934 C56.3094395,20.5949982 75.6174002,9.82734381 75.6174002,9.82734381 C75.6174002,9.82734381 93.7292129,7.43435529 95.0960124,12.2200677 Z" id="Shape" fill="#A58075" fill-rule="nonzero"></path>
                    <path d="M74.9340004,22.4748254 C74.9340004,22.4748254 74.1926586,20.7961341 72.2429982,20.4592314 C71.1373352,20.2681523 70.0576007,20.836626 69.5773953,21.8510393 C68.8066855,23.4791819 68.4622076,26.662423 72.3707884,31.8752846 C78.5221798,40.0792495 74.9340004,22.4748254 74.9340004,22.4748254 Z" id="Shape" fill="#F0AF9E" fill-rule="nonzero"></path>
                    <path d="M129.15911,69.2992749 C129.15911,69.2992749 130.261598,65.8143299 132.416834,63.6709088 C135.509992,60.5945873 137.920808,60.0644882 139.615417,57.521177 C140.209126,56.6300918 140.641708,56.1100495 140.953643,55.8101982 C141.275367,55.5008193 141.813515,55.6611988 141.906381,56.0976109 C142.086292,56.9421172 142.102696,58.5332085 140.508361,60.3460785 C140.508361,60.3460785 141.227743,60.7517909 142.280227,60.1023335 C143.332445,59.4528761 145.343487,59.0169934 147.134137,56.5930405 C148.924788,54.1690876 150.288677,53.6628073 150.434193,54.3331722 C150.579446,55.0035372 148.1935,58.8904894 148.1935,58.8904894 C148.1935,58.8904894 148.866052,59.7273208 148.029462,60.4003323 C147.75007,60.6250224 147.428081,60.9058187 147.069052,61.2310767 C145.807818,62.3735819 144.68628,63.6605873 143.708672,65.0537184 L143.705497,65.0584822 C143.705497,65.0584822 144.521185,65.5835529 143.494366,66.9994441 C143.494366,66.9994441 143.52003,67.7661426 142.68344,68.4388894 C141.846851,69.1116363 139.995084,71.7023202 134.667582,73.4868725 C133.783105,73.7832834 129.137151,77.8234695 122.512168,84.9489752 C120.599813,87.005855 119.191475,77.0805897 119.191475,77.0805897 L129.15911,69.2992749 Z" id="Shape" fill="#F0AF9E" fill-rule="nonzero"></path>
                    <path d="M63.1442306,45.2066284 C63.1442306,45.2066284 57.5505654,49.2584592 52.884239,57.9419746 C50.604917,62.1835613 49.0330711,66.7710489 48.1073198,71.4966852 C45.3102226,85.7723094 41.2894616,101.334939 38.1150791,108.003125 C38.1150791,108.003125 49.600322,121.789407 69.6996294,116.045123 C69.6996294,116.045123 72.4028021,102.136307 80.6173569,95.4228653 C81.305519,94.8604785 82.0378653,94.3277329 82.8170415,93.8333619 C84.0407054,93.0568713 85.2037814,92.1792834 86.2070534,91.1333764 C90.1460605,87.0272918 91.9031095,81.1416834 87.5780861,73.0660749 C85.8321493,69.8058199 85.6723454,66.4150912 84.90825,63.948 C83.1766003,58.3572145 79.8141042,53.3730127 75.1223785,49.875629 C72.0186378,47.5620363 68.0140159,45.5911686 63.1442306,45.2066284 Z" id="Shape" fill="#CA8383" fill-rule="nonzero"></path>
                    <path d="M70.5539452,29.0755251 C70.5539452,29.0755251 72.6507098,34.6319057 68.5574549,41.1333607 C67.4967699,42.818139 66.1281184,44.2872254 64.5919903,45.5533233 C56.2073132,52.4634018 51.8674735,59.905432 51.8674735,59.905432 L51.1840738,42.4719734 L69.9792862,29.1406296 L70.5539452,29.0755251 Z" id="Shape" fill="#A58075" fill-rule="nonzero"></path>
                    <path d="M85.5032814,91.8124749 C84.6741003,92.5667347 83.7650172,93.231542 82.8170415,93.8330973 C82.5172769,94.0231178 82.2249205,94.2192254 81.939443,94.420626 C81.5957588,94.6630477 68.2701254,79.3896834 67.9285579,71.8695807 C67.3882937,59.9829752 93.1437063,80.3164967 85.5032814,91.8124749 Z" id="Shape" fill="#C47777" fill-rule="nonzero"></path>
                    <path d="M75.0628489,49.9171795 C75.0628489,49.9171795 84.0581674,55.8591589 94.9203339,72.8360918 L103.406344,86.0782477 C103.406344,86.0782477 114.947412,79.2875275 123.942731,72.6664495 C123.942731,72.6664495 129.373946,74.703745 130.052848,78.0992375 C130.052848,78.0992375 113.609451,98.1649305 105.782765,103.055445 C103.490743,104.487745 101.922602,103.692199 100.351549,102.715896 C92.1880579,97.6422417 69.8668414,78.1857789 66.2373883,73.345548 C62.1639766,67.9127601 75.0628489,49.9171795 75.0628489,49.9171795 Z" id="Shape" fill="#CA8383" fill-rule="nonzero"></path>
                    <path d="M195.662662,189.421106 C196.020104,189.754303 196.466179,191.1125 196.561162,191.786306 C196.573333,191.872847 196.529678,191.954889 196.457977,191.978444 C195.305485,192.355309 186.75095,195.596773 170.548846,194.37699 C170.349621,194.361905 170.166534,194.230108 170.067053,194.025531 C169.869415,193.619025 169.653786,192.806541 169.964663,191.412352 C170.427141,189.338269 193.387309,189.92024 195.804739,189.987462 C195.938615,189.990903 195.556567,189.32239 195.662662,189.421106 Z" id="Shape" fill="#FFFFFF" fill-rule="nonzero"></path>
                    <path d="M179.819588,181.706483 C179.819588,181.706483 177.788174,188.988928 171.741819,185.426705 C171.475656,185.269766 171.1706,185.198309 170.885916,185.281675 C170.57742,185.371921 170.241144,185.625459 170.130552,186.277827 C169.909366,187.582829 169.964398,191.412087 169.964398,191.412087 C169.964398,191.412087 189.010164,192.53739 196.009786,189.99302 C196.009786,189.99302 196.33495,188.216937 191.57999,187.754059 C185.695027,187.181351 179.819588,181.706483 179.819588,181.706483 Z" id="Shape" fill="#FFFFFF" fill-rule="nonzero"></path>
                    <path d="M152.233045,262.648089 C152.556886,263.03263 152.902687,264.538503 152.952692,265.278207 C152.959042,265.373217 152.911947,265.459758 152.84157,265.480931 C151.708656,265.820744 142.365685,267.287714 127.747068,266.508047 C127.554986,266.497726 127.388039,266.324908 127.304697,266.095983 C127.139337,265.64131 126.98165,264.743608 127.366873,263.244616 C127.939944,261.014654 150.011401,263.052479 152.334907,263.273199 C152.463491,263.285108 152.13674,262.53376 152.233045,262.648089 Z" id="Shape" fill="#FFFFFF" fill-rule="nonzero"></path>
                    <path d="M137.453038,253.279653 C137.453038,253.279653 135.048836,261.084257 129.446175,256.836319 C129.199591,256.64921 128.910144,256.552876 128.631017,256.626185 C128.328342,256.705581 127.989155,256.96097 127.84258,257.664682 C127.54943,259.072104 127.366608,263.244352 127.366608,263.244352 C127.366608,263.244352 145.635579,265.6339 152.531752,263.291989 C152.531752,263.291989 152.95428,261.378022 148.404367,260.583535 C142.773396,259.599821 137.453038,253.279653 137.453038,253.279653 Z" id="Shape" fill="#FFFFFF" fill-rule="nonzero"></path>
                    <path d="M131.196875,114.336526 L121.541968,262.485328 C121.383752,264.912457 123.185514,266.984951 125.493146,267.029677 C127.492282,267.068317 129.216788,265.557944 129.546714,263.478834 L153.575239,112.092272 L131.196875,114.336526 Z" id="Shape" stroke="#FFE9E4" stroke-width="4"></path>
                    <path d="M431.963929,114.897589 L441.618835,262.502001 C441.777052,264.920396 439.975289,266.984951 437.667922,267.029677 C435.668786,267.068317 433.94428,265.563237 433.614354,263.492066 L409.585829,112.661804 L431.963929,114.897589 Z" id="Shape" stroke="#FFE9E4" stroke-width="4"></path>
                </g>
                <g id="_x32_" transform="translate(22.224382, 86.806042)">
                    <path d="M325.527397,61.989571 C317.657055,53.6628073 296.38356,50.5221752 296.38356,50.5221752 C296.547068,54.0282924 293.060485,56.9847263 290.30625,58.2277994 C287.552014,56.9847263 281.807011,54.8069003 281.970519,51.3007831 C281.970519,51.3007831 262.955444,53.6628073 255.085367,61.989571 C247.286726,70.2403795 224.544304,101.356376 226.209281,119.97786 C227.156463,130.572167 255.387513,130.169895 273.809409,126.941927 C280.935498,127.500609 284.750948,126.099274 290.306779,125.848383 C295.862345,126.099274 303.007748,127.046201 310.133837,126.487519 C328.555469,129.715222 353.45683,130.571902 354.404012,119.977595 C356.068459,101.356376 333.325773,70.2403795 325.527397,61.989571 Z M259.733173,102.340354 C259.733173,102.340354 264.275413,108.328118 264.338118,113.691832 C262.572602,113.027819 254.91842,111.145345 255.041183,111.121262 C255.041447,111.121262 258.371136,104.459956 259.733173,102.340354 Z M318.457662,114.982013 C318.520367,109.6183 320.879326,102.340619 320.879326,102.340619 C322.241363,104.460221 325.571316,111.121526 325.571316,111.121526 C323.300725,112.256886 320.223178,114.317735 318.457662,114.982013 Z" id="Shape" fill="#A1BFCA" fill-rule="nonzero"></path>
                    <path d="M301.012316,51.1991565 C299.925438,49.555664 300.087359,44.9705583 300.087359,44.9705583 C298.36735,28.9656943 293.792832,32.7483734 291.29153,36.273281 C288.790229,32.7483734 284.215711,28.9656943 282.495702,44.9705583 C282.495702,44.9705583 282.657623,49.555664 281.570745,51.1991565 C280.483867,52.8426489 279.125269,58.6692399 282.521895,61.9562248 C284.570772,63.9390018 288.497608,64.1816882 291.291795,64.0625946 C294.085982,64.1819529 298.012818,63.9390018 300.061695,61.9562248 C303.458057,58.6695045 302.099459,52.8426489 301.012316,51.1991565 Z" id="Shape" fill="#F0AF9E" fill-rule="nonzero"></path>
                    <path d="M277.438597,30.847374 C277.438597,30.847374 270.236839,24.3631215 272.310586,12.5802598 C273.36889,6.56735347 279.010178,3.57942598 283.955368,6.85264894 C288.369289,9.77414864 289.249798,-0.753465861 297.673897,0.306732326 C300.229436,0.628285196 303.247454,2.51525801 303.840104,5.0858284 C304.00467,5.79933172 304.054411,6.56629486 303.894871,7.34357946 C303.894871,7.34357946 304.651559,7.76940544 305.630225,8.48343807 C308.794554,10.793061 310.494719,14.7173293 309.920854,18.6574767 C309.121834,24.1431952 305.475713,27.0887782 304.852107,30.847374 C304.054675,35.6547879 277.438597,30.847374 277.438597,30.847374 Z" id="Shape" fill="#70524D" fill-rule="nonzero"></path>
                    <path d="M299.461901,40.5921462 L287.262038,50.0688254 C287.262038,50.0688254 294.580739,54.8005486 300.587143,50.2358211 C300.587143,50.2358211 300.587143,50.2358211 300.587143,50.2358211 C299.972268,48.2281668 300.087359,44.9705583 300.087359,44.9705583 C299.908241,43.3027178 299.697638,41.8526864 299.461901,40.5921462 Z" id="Shape" fill="#DB9A88" fill-rule="nonzero"></path>
                    <path d="M290.974304,11.7619541 C290.974304,11.7619541 277.842605,8.32544048 277.096236,23.8719263 C277.096236,23.8719263 277.245457,38.2729958 279.931432,42.8551903 C282.324522,46.9377208 285.577748,50.1397523 289.498235,51.0120471 C290.479547,51.2303855 291.487052,51.2274743 292.47101,51.0239565 C296.580933,50.1736278 299.612709,46.9565112 302.016911,42.8549257 C304.702886,38.2727311 304.852107,23.8716616 304.852107,23.8716616 C304.106003,8.32544048 290.974304,11.7619541 290.974304,11.7619541 Z" id="Shape" fill="#F0AF9E" fill-rule="nonzero"></path>
                    <path d="M277.438597,30.847374 C277.438597,30.847374 277.096236,22.0720242 279.010443,19.1261764 C280.92465,16.1803287 283.636554,15.1984677 286.667272,16.6715239 C289.697989,18.1443154 298.500961,24.7357523 304.627747,21.5218115 C310.754533,18.3078707 301.662115,10.7800931 301.662115,10.7800931 C301.662115,10.7800931 283.636818,7.34357946 280.605836,9.79823202 C277.574854,12.2528846 273.474191,24.2397934 277.438597,30.847374 Z" id="Shape" fill="#70524D" fill-rule="nonzero"></path>
                    <path d="M303.336881,17.0804121 C303.336881,17.0804121 305.256909,21.9799251 304.445454,31.6063976 L306.523434,17.1137583 L303.336881,17.0804121 Z" id="Shape" fill="#70524D" fill-rule="nonzero"></path>
                    <path d="M278.057176,30.6914937 C277.619303,29.7165136 276.498823,29.3002151 275.637629,29.8536036 C275.363792,30.0295976 275.120383,30.2950441 274.958197,30.6899057 C274.309193,32.2701462 275.167477,36.7025474 278.956999,38.5246804 C281.994066,39.9847686 279.26179,33.3740121 278.057176,30.6914937 Z" id="Shape" fill="#F0AF9E" fill-rule="nonzero"></path>
                    <path d="M303.937204,30.6914937 C304.375077,29.7165136 305.495556,29.3002151 306.356751,29.8536036 C306.630587,30.0295976 306.873997,30.2950441 307.036182,30.6899057 C307.685187,32.2701462 306.826902,36.7025474 303.037381,38.5246804 C300.000313,39.9847686 302.732589,33.3740121 303.937204,30.6914937 Z" id="Shape" fill="#F0AF9E" fill-rule="nonzero"></path>
                    <path d="M281.466502,51.3036943 C281.466502,51.3036943 291.22327,62.7967613 301.130582,51.4188181 L308.786881,58.20451 L303.234225,68.5622175 L288.827534,71.4143782 L271.119465,67.6616048 L270.96945,59.4055033 L281.466502,51.3036943 Z" id="Shape" fill="#A1BFCA" fill-rule="nonzero"></path>
                    <path d="M319.993261,128.997219 L261.783637,128.997219 C258.104179,128.997219 255.121349,126.013526 255.121349,122.333003 L255.121349,87.9218175 C255.121349,84.2412943 258.104179,81.2576012 261.783637,81.2576012 L319.993261,81.2576012 C323.672719,81.2576012 326.655549,84.2412943 326.655549,87.9218175 L326.655549,122.333003 C326.655549,126.013526 323.672984,128.997219 319.993261,128.997219 Z" id="Shape" fill="#FFFFFF" fill-rule="nonzero"></path>
                    <ellipse id="Oval" fill="#E9E9EB" fill-rule="nonzero" cx="290.888581" cy="105.094858" rx="3.30270186" ry="3.30365801"></ellipse>
                    <path d="M266.400223,262.873309 L252.706564,264.227536 C250.966977,264.39956 249.425029,263.060683 249.262314,261.236962 C249.0996,259.413241 250.377767,257.79542 252.117089,257.623396 L265.810748,256.269169 C267.55007,256.097144 269.092284,257.436022 269.254998,259.259743 C269.417977,261.083463 268.13981,262.701285 266.400223,262.873309 Z" id="Shape" fill="#556D82" fill-rule="nonzero"></path>
                    <path d="M314.240321,263.252556 L327.910962,264.823534 C329.647374,265.023082 331.210489,263.708817 331.402306,261.888007 C331.593859,260.067198 330.341621,258.429263 328.604944,258.229715 L314.934304,256.658737 C313.197892,256.459189 311.634777,257.773454 311.442959,259.594263 C311.251406,261.415338 312.503909,263.053008 314.240321,263.252556 Z" id="Shape" fill="#556D82" fill-rule="nonzero"></path>
                    <polygon id="Shape" fill="#FFFFFF" fill-rule="nonzero" points="225.68595 108.394811 227.240598 128.997219 239.676198 128.997219 242.396568 108.394811"></polygon>
                    <path d="M225.68595,108.394811 L227.240333,128.997484 L234.040994,128.997484 C227.432416,127.370665 225.68595,108.394811 225.68595,108.394811 Z" id="Shape" fill="#F4F4F4" fill-rule="nonzero"></path>
                    <path d="M239.676198,115.391695 C239.676198,115.391695 243.56229,113.836862 245.505336,115.391695 C247.448382,116.946529 245.116674,122.388845 239.676198,124.332453" id="Shape" stroke="#FFFFFF" stroke-width="3"></path>
                    <path d="M447.285523,124.618807 L401.316771,124.618807 L384.923909,80.898997 C384.634727,80.1275347 383.77512,79.7366429 383.003881,80.0261728 C382.232642,80.3154381 381.842128,81.1752943 382.131309,81.9467565 L399.218948,127.519399 C399.482466,128.222317 400.219575,128.607386 400.931813,128.45177 C400.95245,128.452564 400.972293,128.454946 400.99293,128.454946 L447.285523,128.454946 C448.344356,128.454946 449.202905,127.596149 449.202905,126.537009 C449.202905,125.477869 448.344621,124.618807 447.285523,124.618807 Z" id="Shape" fill="#E9E9EB" fill-rule="nonzero"></path>
                    <path d="M325.285839,271.023285 C325.285839,271.023285 326.018979,275.903743 326.578822,278.010642 C327.138664,280.117541 326.581467,283.536587 323.120814,283.667326 C320.425049,283.769217 315.251001,283.297871 313.095236,283.084825 C312.024233,282.978964 311.017521,282.456011 310.388889,281.582393 C309.67374,280.588358 309.253858,279.008117 310.434925,276.663825 C312.797324,271.97524 312.903948,270.255263 312.903948,270.255263 C312.903948,270.255263 320.382981,266.57474 325.285839,271.023285 Z" id="Shape" fill="#FFFFFF" fill-rule="nonzero"></path>
                    <path d="M325.809699,278.767019 C326.496538,279.109744 326.962457,279.797576 326.975686,280.565068 C327.002672,282.137105 326.076392,283.861845 323.271622,283.908424 C320.493045,283.954738 315.150462,283.501124 312.92432,283.2984 C311.818393,283.197567 310.773053,282.758773 310.112936,282.039448 C309.771633,281.667611 309.491712,281.198382 309.39911,280.619587 C309.175279,279.222486 310.16347,277.911397 311.549848,277.630071 C316.108492,276.705111 322.626321,277.17778 325.809699,278.767019 Z" id="Shape" fill="#E9E9EB" fill-rule="nonzero"></path>
                    <path d="M255.0306,271.023285 C255.0306,271.023285 254.29746,275.903743 253.737617,278.010642 C253.177774,280.117541 253.734971,283.536587 257.195625,283.667326 C259.89139,283.769217 265.065173,283.297871 267.221202,283.084825 C268.292206,282.978964 269.298917,282.456011 269.927285,281.582393 C270.642434,280.588358 271.062316,279.008117 269.881249,276.663825 C267.51885,271.97524 267.412226,270.255263 267.412226,270.255263 C267.412226,270.255263 259.933457,266.57474 255.0306,271.023285 Z" id="Shape" fill="#FFFFFF" fill-rule="nonzero"></path>
                    <path d="M254.476578,278.77337 C253.787093,279.117683 253.319058,279.808162 253.305829,280.57883 C253.278842,282.157218 254.208562,283.88884 257.024973,283.935683 C259.814927,283.981998 265.17894,283.526795 267.414343,283.323277 C268.524768,283.22218 269.574341,282.781534 270.237104,282.059297 C270.57973,281.686137 270.860709,281.21479 270.95384,280.633613 C271.17873,279.230955 270.186305,277.914308 268.794371,277.631924 C264.216942,276.703258 257.67292,277.17778 254.476578,278.77337 Z" id="Shape" fill="#E9E9EB" fill-rule="nonzero"></path>
                    <path d="M0.106888693,292.175112 C55.8271175,292.175112 455.561989,292.175112 546.495692,292.175112" id="Shape" stroke="#FFFFFF" stroke-width="2"></path>
                    <ellipse id="Oval" fill="#94BFB5" fill-rule="nonzero" cx="343.362198" cy="107.494463" rx="5.81908392" ry="9.45868278"></ellipse>
                    <path d="M347.168124,114.64961 C346.147919,116.084821 344.817366,116.953146 343.362198,116.953146 C340.148394,116.953146 337.543114,112.718175 337.543114,107.494463 C337.543114,104.3623 338.479713,101.585565 339.922446,99.8642647 C339.57982,109.191944 344.235034,114.236752 347.168124,114.64961 Z" id="Shape" fill="#85B5A8" fill-rule="nonzero"></path>
                    <ellipse id="Oval" fill="#88B5A9" fill-rule="nonzero" cx="338.318851" cy="98.2295057" rx="2.4245742" ry="2.42527613"></ellipse>
                    <path d="M340.74369,98.2295057 C340.74369,99.5689124 339.658135,100.654782 338.319116,100.654782 C336.980097,100.654782 335.894542,99.5689124 335.894542,98.2295057 C335.894542,97.2248846 336.505183,96.3629112 337.375373,95.9947795 C337.543114,98.2295057 339.288787,98.9086042 340.74369,98.2295057 Z" id="Shape" fill="#84AFA3" fill-rule="nonzero"></path>
                    <polygon id="Shape" fill="#FFFFFF" fill-rule="nonzero" points="336.767113 115.400958 338.803819 128.885801 348.211347 128.885801 350.151218 115.400958"></polygon>
                    <path d="M338.324936,125.714998 L338.803819,128.885801 L348.211347,128.885801 L350.150953,115.400958 L349.514383,117.446193 C347.988574,122.349676 343.459298,125.696737 338.324936,125.714998 Z" id="Shape" fill="#F4F4F4" fill-rule="nonzero"></path>
                </g>
            </g>
        </g>
    </g>
</svg>